<svg width="152" height="58" viewBox="0 0 152 58" fill="none" xmlns="http://www.w3.org/2000/svg">
<path d="M11.9462 3.32885C13.0308 3.80054 14.4406 4.1843 15.8956 4.40815C17.1908 4.648 18.3261 4.91449 19.1309 5.76461L19.2135 5.85256L19.3281 5.88987C19.464 5.93517 19.5839 5.95383 19.6905 5.95383C20.1089 5.95383 20.3035 5.66068 20.3781 5.54875L20.45 5.43949L20.6073 5.28492L20.6419 5.15967C20.8365 4.44013 20.6899 3.73392 20.2395 3.21958L20.1249 3.12365C19.0589 2.48406 17.905 2.22289 16.7617 1.96439C15.3173 1.72188 13.9582 1.38343 13.7317 1.21021L13.0708 0.821128C12.6684 0.597272 12.3113 0.538642 11.9808 0.647905C11.6397 0.759833 11.3599 1.04232 11.152 1.48737L11.1174 1.59663C10.9708 2.32682 11.3519 3.10766 11.9462 3.32885Z" fill="#8F97B5"/>
<path d="M37.3911 32.1366L37.2792 32.1792C35.984 32.8508 34.8647 33.4318 33.5056 33.1413C31.9146 32.491 30.4089 31.7049 29.0338 30.8041C27.7946 29.978 26.6327 29.1332 25.4947 28.2298C26.8166 26.5215 27.9492 24.5281 28.8632 22.2922C29.6574 20.3069 30.2703 18.1909 30.6861 16.0163C30.9792 14.5532 30.6408 13.4819 29.6547 12.7411L29.5721 12.6904C28.4715 12.1681 27.2909 12.2187 26.1583 12.8423C26.0597 12.885 25.8119 13.0076 25.0017 13.5459C25.0923 13.0475 25.151 12.5385 25.151 12.0268C25.151 11.3126 25.0204 10.7024 24.7672 10.2014C24.5087 9.55377 23.9171 9.15137 23.2215 9.15137L23.1549 9.1567C22.8111 9.20467 22.3128 9.31393 21.9344 9.69235L21.7931 9.83359V10.0335C21.7931 10.5132 21.9983 10.8409 22.1502 11.0781L22.2408 11.2194C22.4194 11.4539 22.4434 11.5791 22.446 11.6538C22.4967 12.6824 22.0809 15.406 21.6226 16.1122L21.38 16.5946C21.1615 17.1409 21.2841 17.6686 21.6865 18.0123C22.1369 18.4654 22.8351 18.4281 23.5547 17.9137L24.8951 16.4827C25.4041 16.0243 25.8332 15.6459 26.2596 15.3447C26.8299 15.0196 27.3789 14.881 28.0531 14.9023C28.1037 14.9716 28.133 15.1049 28.1384 15.2808C27.7306 17.2315 27.1337 19.7552 26.1317 22.0764C25.3801 23.7793 24.514 25.221 23.4907 26.4682C22.7658 25.9512 21.7745 25.1997 20.975 24.5601C22.566 24.0458 23.981 23.4702 25.1936 22.8466L25.2522 22.8093C25.4921 22.6387 26.1263 22.1856 26.0517 21.3915C26.0437 21.0477 25.8732 20.8132 25.7692 20.672L25.6653 20.5227L25.5853 20.4694C25.4734 20.3948 25.3668 20.3229 25.3215 20.2536L25.2576 20.155L24.6686 19.8245C23.9251 19.4034 23.1549 18.9691 22.3208 18.6626C21.6012 18.4387 20.5086 18.2122 19.3067 18.8465L19.1868 18.9024L19.1175 19.041L19.0216 19.089L18.891 19.2489C18.6938 19.4887 18.4486 19.7872 18.4486 20.2696L18.4539 20.3495C18.5445 20.8985 19.0482 21.149 19.4773 21.149H19.6079L19.7198 21.0824C20.1702 20.8212 20.5779 20.8532 21.0229 20.9731C21.2735 21.0557 21.5266 21.1596 21.7718 21.2609C22.1102 21.3968 22.4567 21.5407 22.7685 21.6233C22.7898 21.6313 22.8085 21.6367 22.8298 21.6447C22.1689 21.9458 21.46 22.207 20.7778 22.4575L20.5166 22.5401C19.6292 22.8199 18.7124 23.1077 17.8197 23.5315L17.6704 23.6034L17.5958 23.75C17.3666 24.2084 17.4226 24.704 17.7504 25.1144L17.8277 25.1917C19.1708 26.2577 20.4979 27.361 21.6865 28.4057C21.6252 28.4563 21.5666 28.5069 21.508 28.5576C20.8311 29.1385 20.1915 29.6875 19.5199 30.1006C18.8164 30.5349 18.1128 30.8254 17.3586 30.9933C17.1081 31.0573 16.8283 31.1026 16.5298 31.1506C16.1594 31.2118 15.7383 31.2785 15.304 31.3957L14.8936 31.505L14.9548 31.9261C15.0348 32.4804 15.3119 32.7229 15.5465 32.8774L16.0795 33.1733L16.1727 33.1839C17.5025 33.3385 18.7764 33.1573 19.9703 32.6456C21.42 31.9953 22.6939 30.9773 23.6826 30.0952C24.9724 31.1532 26.3075 32.2219 27.7599 33.0667C28.0664 33.2559 28.3702 33.4557 28.6714 33.6529C29.3989 34.13 30.1504 34.623 30.9552 34.9907C32.0212 35.4998 33.0206 35.7476 34.0412 35.7476C34.3504 35.7476 34.6622 35.7236 34.9766 35.6783C35.6295 35.577 36.3971 35.4198 37.1299 35.0254C37.8814 34.615 38.3931 34.0394 38.6489 33.3172L38.7049 33.1599L38.6516 33.0027C38.3158 31.9927 37.5936 32.086 37.3804 32.1392L37.3911 32.1366Z" fill="#8F97B5"/>
<path d="M18.5071 9.98278C19.4318 9.12999 19.3385 8.30653 18.9681 7.84815C18.579 7.26186 17.7556 7.02202 16.9854 7.27519C13.6196 8.30386 10.7601 9.15931 8.29764 9.87352C8.43889 9.58037 8.53482 9.14332 8.27899 8.58102L8.05513 8.088L5.79792 9.46844C5.20097 9.82555 4.62534 10.3266 4.17496 10.8729L4.10034 10.9981C3.82319 11.6937 4.12966 12.4372 4.55605 12.8636L4.61734 12.9142C5.09171 13.2527 5.56606 13.2527 5.94449 13.2527L6.0804 13.234C7.60209 12.7863 9.37429 12.256 11.1038 11.6271C12.0073 11.2966 12.9586 10.9635 13.9527 10.689C11.5942 12.9862 9.37695 15.2354 7.33826 17.3913C4.77457 20.1816 2.60797 22.7239 0.699861 25.1917C0.582603 25.3702 0.521308 25.5648 0.473338 25.7193L0.436033 25.8392C0.324105 26.287 0.507981 26.7293 0.905059 26.9665L1.01966 27.0358H1.15291C1.61394 27.0358 1.97104 26.8546 2.20023 26.7187L2.30683 26.6307C3.01037 25.8632 3.70593 25.0717 4.44146 24.2349C4.90249 23.7099 5.37152 23.1743 5.85655 22.6306C6.66403 21.7219 7.70069 20.5813 8.91058 19.3901C8.80931 20.4454 8.67607 21.498 8.54548 22.524C8.44954 23.2809 8.35361 24.0404 8.26567 24.8079C8.06579 26.772 7.91389 28.9866 7.86326 30.7481C7.86326 31.5902 7.98584 32.387 8.23635 33.1972C8.49485 33.9753 9.23837 34.527 10.0005 34.527C10.0432 34.527 10.0858 34.527 10.1285 34.5217L10.3044 34.5057L10.4296 34.3804C11.2931 33.517 11.9167 32.5096 12.3883 31.2091C12.6655 30.4496 12.8494 29.6448 13.0253 28.8666C13.1132 28.4829 13.2012 28.0991 13.2998 27.7154C13.3424 27.5422 13.3637 27.1984 13.0226 26.8599L12.9 26.772C12.6682 26.6547 12.4257 26.6361 12.2205 26.7213C12.0499 26.7906 11.9193 26.9265 11.8474 27.1024C11.5942 27.5768 11.3917 28.0751 11.1944 28.5575C11.1118 28.7574 11.0319 28.9599 10.9493 29.1465C10.8693 29.3197 10.7947 29.4929 10.7228 29.6581C10.6828 29.7514 10.6428 29.842 10.6055 29.93C10.6162 28.888 10.6854 27.7207 10.8134 26.3483C11.0079 24.3442 11.2531 22.3775 11.5595 20.3255C11.7461 18.9583 11.6235 17.879 11.1891 17.0396L11.8314 16.3973C13.95 14.2734 16.1433 12.0748 18.5044 9.97745L18.5071 9.98278Z" fill="#8F97B5"/>
<path d="M43.9602 7.33679C44.1868 7.64859 44.5359 7.77917 44.9436 7.70189C46.5026 7.33146 49.6872 7.95772 51.105 8.56C51.3875 8.73056 51.6033 8.89045 51.7339 9.02104L51.8058 9.08233C52.1176 9.2902 52.4721 9.52738 52.9544 9.6473L53.2529 9.72192L53.4448 9.48207C53.7033 9.15695 53.7859 8.7732 53.6846 8.36546C53.6393 8.18957 53.5994 8.02435 53.5994 7.8831V7.73653L53.5194 7.61661C52.9465 6.75583 52.1017 6.09225 50.9957 5.63655C49.8231 5.18617 46.3027 4.38935 44.5518 5.09023L44.2321 5.27411L44.1414 5.34607C43.9416 5.54594 43.342 6.14555 43.6884 6.82512C43.7417 6.98768 43.8137 7.17689 43.9576 7.33679H43.9602Z" fill="#8F97B5"/>
<path d="M55.7367 15.6942C55.2757 15.6116 54.8413 15.8861 54.6628 16.3764C53.8393 18.9667 53.1064 20.8882 52.2883 22.6097C51.8193 23.6064 51.3023 24.6191 50.7293 25.6691C50.9851 23.5211 51.1664 21.3306 51.2063 19.8169C51.2063 18.4311 50.9238 17.3305 50.3695 16.5443L50.3242 16.491C49.3782 15.497 48.0404 14.98 46.5666 15.0413C45.0663 15.0839 43.3634 15.6062 41.3727 16.6402C40.9169 16.8694 40.7411 17.1866 40.6718 17.4131C40.5732 17.7355 40.6238 18.0953 40.8077 18.4338C41.0582 18.9934 41.6631 19.4971 42.3027 19.3345L42.5799 19.2092C43.6938 18.6523 44.8451 18.074 46.0123 17.8954C46.8331 17.7569 47.4834 17.8661 48.115 18.2419C48.4081 18.591 48.5494 18.9108 48.5494 19.1986C48.4454 21.5864 48.083 25.5598 47.7046 28.446L47.6993 28.5073C47.6993 28.6139 47.6646 28.7684 47.6273 28.931C47.6006 29.0456 47.5767 29.1602 47.5553 29.2774C47.5394 29.3681 47.5207 29.4587 47.4994 29.5493C47.4514 29.7625 47.3981 30.0023 47.3981 30.2555C47.3981 31.1482 47.6753 31.7159 48.2243 31.9397C48.4028 32.0357 48.5893 32.073 48.7732 32.073C49.2369 32.073 49.6926 31.8278 50.0337 31.6093L50.1137 31.5586L50.1697 31.4814C51.8779 29.0483 53.3223 26.4313 54.4682 23.6917C55.3823 21.3839 56.0619 19.052 56.4909 16.7628L56.4989 16.6749C56.4989 16.1792 56.1845 15.7768 55.7367 15.6968V15.6942Z" fill="#8F97B5"/>
<path d="M75.2172 28.7816L75.0866 28.8215C74.1992 29.2506 73.2691 29.7996 72.2724 30.4818C72.2937 30.3912 72.3097 30.3006 72.3257 30.2126C72.4829 28.9415 71.8647 27.8248 70.6841 27.2359C69.7274 26.7029 68.3523 26.5483 67.1957 26.8388C65.6127 27.2092 64.1043 28.2939 63.1529 29.7489C62.9744 30.0314 62.8198 30.3326 62.6812 30.6524C62.6359 30.1887 62.6199 29.709 62.6413 29.2239C62.6919 27.9368 62.9584 26.8495 63.4354 25.986C64.1789 24.6003 65.117 23.5849 66.2256 22.9693C69.8633 22.2444 72.8267 21.81 75.2811 21.6448L75.5743 21.6235L75.8781 20.9146V20.816C75.8781 20.1977 75.4437 19.7021 75.0146 19.4862L74.924 19.4409L74.8228 19.4356C72.6881 19.3316 70.0818 19.6807 68.2776 19.9925C67.5101 20.1231 66.748 20.2857 65.9991 20.4536C66.692 19.9872 67.3636 19.4702 67.9952 18.8626L69.7967 17.1091C70.4016 16.5041 71.0252 15.8805 71.4996 15.1956C72.0352 14.4335 72.912 12.9224 72.7814 11.3768C72.6295 9.90303 71.7154 8.90368 70.2284 8.56523C69.4049 8.3467 68.5415 8.37069 67.75 8.46129C67.9685 7.21943 68.1444 5.94291 67.8219 4.65041C67.5128 3.56578 66.708 2.67568 65.4501 2.01744C64.2989 1.36719 62.7532 0.999426 61.3994 1.05539C60.0882 1.11135 58.8997 1.54574 57.951 2.32924C57.3247 2.89687 56.9942 3.6244 56.9942 4.43188C56.9942 5.29799 57.2527 6.27337 57.7004 7.1075L57.7831 7.21943C58.1695 7.60585 58.6358 7.58452 59.1715 7.15547L59.3527 7.01156V6.77971C59.3527 6.57717 59.3474 6.36931 59.3421 6.16144C59.3314 5.7617 59.3207 5.34863 59.3474 5.01284C59.4433 4.44254 59.6086 4.13608 59.8964 3.96019C60.5626 3.60841 61.4181 3.50715 62.4574 3.66171C63.2542 3.76032 64.019 4.01082 64.5707 4.34661C65.1596 4.69305 65.4315 5.2447 65.4315 6.08149C65.4315 6.78504 65.3062 8.03757 65.1383 9.05291C63.3715 9.60189 61.0023 10.6119 59.6805 11.6406C58.7318 12.3521 58.0655 13.3088 57.8497 14.2816C57.6525 15.3262 58.0416 16.3709 58.953 17.2263C60.0056 18.1564 61.4234 18.5002 62.6679 18.1217C63.8592 17.7247 64.6267 16.6374 65.2636 15.7366C66.2443 14.2656 66.7506 12.6533 67.1983 10.9903C67.9525 10.8464 68.76 10.7292 69.3703 10.8411C69.6794 10.969 70.0498 11.1822 70.1511 11.478L70.1698 11.526C70.3616 11.9497 70.2417 12.6053 69.8393 13.2875C68.7307 15.2276 65.8552 17.5355 64.6693 18.4389C62.6972 19.9499 60.2854 21.3117 57.6551 22.3857C57.0422 22.6921 56.6904 23.1932 56.6904 23.7635V23.8967L56.7597 24.0113C56.9569 24.3391 57.2074 24.4883 57.4473 24.6296L57.6258 24.7362L57.7484 24.7415C58.7771 24.7895 59.8297 24.6402 61.0396 24.2751C61.2901 24.2085 61.5406 24.1312 61.7911 24.0513C61.2262 24.8774 60.7945 25.8235 60.5013 26.8868C60.0456 28.611 59.9736 30.4285 60.2934 32.2833L60.3121 32.3553C60.3974 32.6111 60.472 32.8669 60.5466 33.1174C60.6479 33.4612 60.7491 33.7943 60.8717 34.1355C61.1356 34.7697 61.466 35.4359 62.0896 36.0036L62.1642 36.0729L62.2602 36.1049C62.7159 36.2594 63.2382 36.2114 63.5847 35.9849C63.8458 35.817 64.0057 35.5532 64.0377 35.2361C64.147 33.7757 64.3682 32.6617 64.7626 31.6117C65.0877 30.6737 66.0711 29.7889 67.2783 29.3545C68.0645 29.0507 68.8426 29.0667 69.4715 29.4025C69.5462 29.4824 69.6155 29.6397 69.5781 30.0687C69.3623 30.8282 68.9785 31.6011 68.4082 32.4325C67.7846 33.344 66.9398 34.1887 66.119 35.0122L66.0551 35.0762L65.8552 35.5479C65.706 35.9983 65.8898 36.3074 66.0711 36.4886L66.3216 36.6831L66.3615 36.7098C66.6174 36.8617 66.8466 36.9177 67.0464 36.9177C67.2756 36.9177 67.4648 36.843 67.6061 36.7604L67.6327 36.7444C68.776 35.9529 69.8953 35.1135 70.9746 34.3007C72.3364 33.2773 73.7461 32.2193 75.1825 31.2786C75.7901 30.9961 76.2832 30.4738 76.5017 29.8715L76.5656 29.693L76.491 29.5171C76.2618 28.9814 75.7608 28.6936 75.2225 28.7842L75.2172 28.7816ZM64.3015 11.8698C63.8911 13.0557 63.4354 13.9831 62.9158 14.6999C62.4121 15.4301 62.0283 15.654 61.8178 15.734C61.6046 15.8272 61.2502 15.8965 60.6372 15.4168C60.3361 15.145 60.2268 14.7879 60.3094 14.3482C60.7838 13.8232 61.554 13.2422 62.4547 12.7439C63.0543 12.3974 63.7019 12.1096 64.3042 11.8724L64.3015 11.8698Z" fill="#8F97B5"/>
<path d="M120.639 30.3486L120.551 30.2446C120.034 29.6317 119.192 29.4265 118.054 29.6317C115.583 30.0607 113.177 30.7643 111.149 31.3959C109.704 31.8543 108.268 32.3686 106.877 32.8643C106.624 32.9549 106.368 33.0455 106.115 33.1361C106.858 31.172 107.247 28.9148 107.277 26.4044C107.77 26.1539 108.273 25.9034 108.777 25.6556C109.968 25.0666 111.199 24.4563 112.369 23.7874C113.113 23.3877 113.934 22.5749 114.067 21.7701C114.147 21.0585 113.766 20.4509 113.022 20.0965C111.703 19.2677 110.243 18.5055 108.684 17.8286C107.943 17.5168 106.858 17.165 105.995 17.714C105.48 18.0365 105.118 18.5828 104.889 19.3876L104.873 19.4835C104.801 20.4456 104.758 22.0339 104.718 23.4383C104.705 23.8807 104.694 24.2964 104.684 24.6535C103.351 25.2745 102.136 25.7648 100.977 26.1459C101.528 25.6076 101.981 25.1039 102.509 24.4297C102.725 24.1046 102.85 23.6036 102.642 23.2171C102.496 22.9426 102.211 22.7854 101.859 22.7854H101.68L101.547 22.9C101.462 22.9746 101.241 23.1372 100.942 23.3584C99.996 24.0619 98.413 25.2425 97.5736 26.1193C96.5156 27.1773 96.6462 28.054 96.8354 28.5204C97.2111 29.2719 98.1972 29.6077 99.3564 29.3758L99.4097 29.3625C101.07 28.8242 102.725 28.2299 104.569 27.5157C104.534 29.4478 104.329 31.3959 103.439 32.9655L103.396 33.0402L103.383 33.1228C103.37 33.2027 103.293 33.3466 103.007 33.5758C102.464 34.0102 101.877 34.783 101.877 35.4493V35.5106C101.933 35.9316 102.205 36.6538 103.426 36.7284L103.524 36.7338L104.513 36.382C107.05 35.4733 109.446 34.6178 111.887 33.861H111.892C114.661 32.9709 117.268 32.3553 119.855 31.9795L119.954 31.9529C120.489 31.753 120.761 31.1907 120.66 30.4871L120.641 30.3512L120.639 30.3486ZM107.418 23.473C107.418 22.4123 107.49 21.3383 107.647 20.1018C107.743 20.0938 107.906 20.1311 108.036 20.1951L108.087 20.2164C109.243 20.6321 109.963 20.9493 111.088 21.6848C111.072 21.6954 111.056 21.7061 111.042 21.7168L110.994 21.7514C109.694 22.4017 108.516 22.9693 107.418 23.473Z" fill="#8F97B5"/>
<path d="M100.561 11.7632C101.033 11.5446 101.507 11.3634 101.941 11.2115C101.931 11.3874 101.923 11.5633 101.912 11.7392C101.867 12.5387 101.824 13.2928 101.824 14.0257C101.824 15.1183 102.091 15.9391 102.597 16.4428C102.943 16.8292 103.562 17.245 104.614 17.245C104.814 17.245 105.033 17.229 105.265 17.197C106.112 17.0824 106.96 16.8799 107.78 16.6827C108.055 16.6187 108.327 16.5521 108.601 16.4908L108.622 16.4855C109.83 16.155 110.866 16.0031 111.892 16.0031C112.46 16.0031 112.902 15.646 112.988 15.113C113.076 14.5667 112.764 13.8765 111.994 13.6206L111.924 13.602C110.587 13.3701 109.406 13.5887 108.508 13.8152C108.257 13.8898 108.007 13.9697 107.756 14.047C107.047 14.2682 106.315 14.4974 105.603 14.644C104.518 14.6333 104.417 14.2416 104.383 13.626C104.383 12.8505 104.502 11.2755 104.686 10.0256C106.035 9.48729 107.482 8.97562 108.884 8.47727C109.856 8.13083 110.824 7.78705 111.764 7.43528C112.297 7.23541 112.516 6.8783 112.601 6.61447C112.761 6.13211 112.636 5.5325 112.249 4.93022L112.026 4.7037C110.858 3.63772 109.406 2.30791 107.906 1.60969C106.941 1.15665 106.037 1.00475 105.273 1.1833C104.396 1.4338 103.703 2.11603 103.261 3.16602C102.648 4.72235 102.378 6.32133 102.16 8.36268C101.76 8.54123 101.355 8.71179 100.961 8.87435C100.06 9.24745 99.1272 9.63386 98.2265 10.1669C97.0672 10.8278 96.2118 11.7658 95.5482 13.0983C95.3483 13.4581 95.4043 13.8605 95.6894 14.1243C96.0066 14.4175 96.5316 14.4654 96.918 14.2043C98.405 13.005 99.1512 12.4027 100.564 11.7685L100.561 11.7632ZM105.027 7.18744C105.19 6.09481 105.435 5.05547 105.688 4.07744C106.096 3.66703 106.477 3.58442 106.973 3.78163L107.013 3.79495C107.426 3.9202 107.908 4.27731 108.447 4.85827L108.484 4.89291C108.734 5.1141 108.974 5.36194 109.203 5.60445C109.219 5.62044 109.233 5.63643 109.249 5.65242C108.151 6.08415 106.347 6.73706 105.027 7.18211V7.18744Z" fill="#8F97B5"/>
<path d="M92.6969 6.00415C91.5616 6.05212 89.872 6.56113 88.5395 7.83497C86.1464 10.1295 84.1504 13.6153 82.5141 16.7253C82.1916 17.2209 81.9998 17.8499 81.9998 18.4175C81.9998 19.1184 82.2689 19.4382 82.4954 19.5847C82.5914 19.646 82.7539 19.7233 82.9778 19.7233C83.1217 19.7233 83.2896 19.6913 83.4788 19.6061L83.612 19.5448L83.6893 19.4222C83.8865 19.1051 84.1344 18.6893 84.4195 18.207C85.4349 16.5014 86.9699 13.9191 88.5555 11.8697C90.6822 9.05019 91.5083 8.81568 92.1186 8.81568C92.8035 8.81568 93.3924 8.81568 94.3012 8.30401L94.4078 8.24538L94.4717 8.14144C94.8848 7.48853 94.7755 7.01417 94.613 6.73168C94.3198 6.22534 93.6349 5.96418 92.6969 6.00948V6.00415Z" fill="#8F97B5"/>
<path d="M90.429 30.6231L90.2557 30.6391L90.2024 30.6924C90.2024 28.1234 90.2131 25.6796 90.4023 23.1932C90.4823 21.8981 90.6128 20.5869 90.7381 19.3184C90.9273 17.4129 91.1219 15.4462 91.1538 13.4821V13.3915L91.1245 13.3089C90.5942 11.8725 89.84 11.8485 89.4429 11.9658L89.3363 12.0111C88.8327 12.2989 88.353 13.157 88.5102 13.7939C88.5235 13.8526 88.5422 13.9139 88.5608 13.9778C88.5981 14.1084 88.6381 14.2417 88.6435 14.3536C88.0572 19.4596 87.4416 25.4238 87.5455 31.6145L87.5508 31.6811C87.7454 32.915 88.4276 33.6878 89.2724 33.6878C89.307 33.6878 89.339 33.6878 89.3736 33.6851C90.1758 33.6851 90.874 32.9416 91.1938 32.2354C91.5429 31.5932 91.447 31.1987 91.3057 30.9802C91.2045 30.8283 90.9513 30.5778 90.4316 30.6284L90.429 30.6231Z" fill="#8F97B5"/>
<path d="M151.55 31.532L151.398 31.4041L151.208 31.4281C150.785 31.4814 150.409 31.4814 150.012 31.4814C149.676 31.4814 149.428 31.4361 149.231 31.3402C147.547 29.6266 146.102 27.5852 144.706 25.6105C144.165 24.8457 143.605 24.0542 143.038 23.2893C142.657 22.7723 142.278 22.2207 141.878 21.6344C141.247 20.7123 140.594 19.7583 139.885 18.8868C138.678 17.3438 137.5 16.3205 136.207 15.7075C136.559 14.3191 137.018 12.968 137.46 11.6541L137.777 10.7134C138.406 8.86128 139 6.83325 139.107 4.58136V4.53339L139.104 4.48542C139.022 3.73924 138.569 3.37947 138.148 3.28353C137.559 3.19292 136.93 3.57401 136.653 4.19761L136.631 4.24824C136.016 6.10305 135.469 8.04313 134.942 9.92193C134.438 11.7101 133.918 13.5623 133.335 15.3451C133.049 16.2485 132.772 17.1493 132.495 18.05C131.768 20.4165 131.016 22.8603 130.145 25.2321C128.815 29.011 127.378 31.9184 125.622 34.3782L125.542 34.4901L125.521 34.6314C125.473 34.9512 125.55 35.2416 125.734 35.4495C125.905 35.6414 126.147 35.7373 126.467 35.7373C126.584 35.7373 126.71 35.724 126.848 35.6973C127.909 35.4362 128.57 34.4768 129.151 33.6267C129.303 33.4055 129.452 33.187 129.604 32.9924L129.641 32.9365C130.939 30.7432 132.079 28.2835 133.129 25.4213C133.918 23.3613 134.582 21.1893 135.221 19.0894L135.44 18.3778L135.669 18.5777C137.777 20.8882 139.603 23.5532 141.367 26.1275C142.454 27.7158 143.579 29.3574 144.759 30.9004L145.601 32.0171C146.678 33.5148 147.912 34.3569 149.268 34.5221L149.324 34.5301L149.38 34.5221C149.503 34.5061 149.625 34.4928 149.745 34.4821C150.028 34.4555 150.318 34.4288 150.585 34.3409C151.176 34.1757 151.603 33.8132 151.888 33.2349L151.949 33.1123V32.9711C151.949 32.9125 151.963 32.8538 151.971 32.8005C151.987 32.6966 152 32.598 152 32.5207C152 32.121 151.843 31.7665 151.558 31.524L151.55 31.532Z" fill="#8F97B5"/>
<path d="M19.9274 42.9994L19.9114 48.3933C19.9114 49.811 19.8688 50.8904 19.7808 51.6259C19.6929 52.3614 19.5596 52.8678 19.3758 53.1449C19.1919 53.4221 18.9201 53.558 18.563 53.558C18.2272 53.558 17.8834 53.4034 17.5316 53.0943C17.1798 52.7851 16.7828 52.3134 16.3457 51.6818C15.9087 51.0503 15.2877 50.0909 14.4856 48.8144C13.1851 46.7357 12.3403 45.4139 11.9512 44.8489L11.9672 48.2441L11.9832 52.9077C11.9832 53.0916 11.9086 53.2515 11.7567 53.3874C11.6048 53.5233 11.4102 53.5899 11.1704 53.5899C10.9305 53.5899 10.7493 53.5233 10.5947 53.3874C10.4375 53.2515 10.3602 53.0916 10.3602 52.9077V48.1961L10.3442 46.0028C10.3336 45.5258 10.3282 44.8436 10.3282 43.9561C10.3282 43.3379 10.3922 42.9008 10.5228 42.6397C10.6534 42.3785 10.9012 42.2506 11.2716 42.2506C11.5968 42.2506 11.9112 42.3812 12.215 42.6397C12.5188 42.9008 12.8413 43.2766 13.1824 43.7696C13.5235 44.2626 14.0352 45.0568 14.7174 46.1494L15.2691 47.0422C16.1139 48.396 16.7401 49.3793 17.1452 49.9923C17.5503 50.6052 17.8994 51.1062 18.1925 51.4953C18.2565 50.3893 18.2911 49.3553 18.2911 48.3906V42.8502C18.2911 42.6343 18.3604 42.4611 18.5017 42.3305C18.6429 42.1999 18.8481 42.136 19.1199 42.136C19.6609 42.136 19.9327 42.4238 19.9327 42.9968L19.9274 42.9994Z" fill="#8F97B5"/>
<path d="M28.279 44.452C28.0631 44.2308 27.9539 43.951 27.9539 43.6152C27.9539 43.2794 28.0658 43.0209 28.287 42.8024C28.5082 42.5866 28.7933 42.4773 29.1398 42.4773C29.4862 42.4773 29.766 42.5812 29.9766 42.7864C30.1871 42.9916 30.2937 43.2635 30.2937 43.5992C30.2937 43.935 30.1818 44.2175 29.9606 44.444C29.7394 44.6706 29.4542 44.7851 29.1078 44.7851C28.7613 44.7851 28.4948 44.6732 28.279 44.452ZM28.279 53.4649C28.1271 53.345 28.0525 53.1771 28.0525 52.9612L28.215 46.3655C28.215 46.1496 28.2896 45.979 28.4415 45.8538C28.5935 45.7285 28.788 45.6672 29.0278 45.6672C29.2677 45.6672 29.4649 45.7312 29.6221 45.8618C29.7794 45.9924 29.8566 46.1656 29.8566 46.3814L29.6941 52.9772C29.6834 53.1931 29.6061 53.3583 29.4596 53.4729C29.313 53.5875 29.1211 53.6434 28.8839 53.6434C28.6468 53.6434 28.4336 53.5848 28.2816 53.4649H28.279Z" fill="#8F97B5"/>
<path d="M45.3082 51.4151C45.3961 51.988 45.4574 52.4384 45.4947 52.7635C45.532 53.0887 45.5507 53.4031 45.5507 53.7069C45.5507 54.5091 45.3855 55.218 45.055 55.8362C44.7245 56.4545 44.2582 56.9369 43.6586 57.2833C43.0589 57.6298 42.3607 57.803 41.5719 57.803C40.9643 57.803 40.4073 57.683 39.8983 57.4459C39.3893 57.2087 38.9816 56.8836 38.6804 56.4705C38.3766 56.0601 38.2247 55.615 38.2247 55.138C38.2247 54.7249 38.4806 54.5198 38.9896 54.5198C39.3147 54.5198 39.5092 54.677 39.5759 54.9914C39.6851 55.4898 39.909 55.8602 40.2501 56.1054C40.5912 56.3479 41.0229 56.4705 41.5426 56.4705C42.3234 56.4705 42.9204 56.2333 43.3388 55.7563C43.7545 55.2793 43.965 54.5864 43.965 53.6776C43.965 53.3845 43.9384 53.0594 43.8824 52.7023C43.6319 53.0061 43.2935 53.2512 42.8671 53.4404C42.438 53.6297 41.9503 53.7256 41.396 53.7256C40.6152 53.7256 39.925 53.5444 39.3253 53.1819C38.7231 52.8195 38.262 52.3292 37.9369 51.7109C37.6118 51.0926 37.4492 50.4211 37.4492 49.6962C37.4492 48.9713 37.6091 48.2545 37.9289 47.6175C38.2487 46.9779 38.7044 46.4716 39.2934 46.0985C39.885 45.7254 40.5592 45.5389 41.3161 45.5389C42.1609 45.5389 42.8271 45.7494 43.3148 46.1731C43.3574 46.0425 43.456 45.8054 43.6079 45.4589C43.7172 45.2431 43.8957 45.1338 44.1436 45.1338C44.3488 45.1338 44.5487 45.1897 44.7379 45.3043C44.9271 45.4189 45.0283 45.5628 45.039 45.7361C45.039 45.8107 45.0337 45.8666 45.023 45.8986C44.8391 46.4849 44.7299 46.8527 44.6979 47.0046L45.2495 50.97L45.3135 51.4257L45.3082 51.4151ZM42.8617 51.9667C43.3121 51.7056 43.5786 51.4257 43.6666 51.1219C43.6026 50.5037 43.4773 49.6535 43.2935 48.5716C43.2828 48.4623 43.2402 48.1878 43.1629 47.7428C43.0643 47.5376 42.8511 47.343 42.5206 47.1592C42.1902 46.9753 41.8197 46.882 41.4067 46.882C40.951 46.882 40.5459 47.0046 40.1888 47.2471C39.8317 47.4896 39.5519 47.8281 39.352 48.2544C39.1521 48.6835 39.0509 49.1552 39.0509 49.6775C39.0509 50.4264 39.2587 51.058 39.6771 51.5776C40.0929 52.0973 40.6925 52.3585 41.4733 52.3585C41.9503 52.3585 42.414 52.2279 42.8617 51.9694V51.9667Z" fill="#8F97B5"/>
<path d="M59.9549 49.8163C60.0135 50.7197 60.0428 51.8176 60.0428 53.1075C60.0428 53.2807 59.9629 53.4273 59.8083 53.5472C59.6537 53.6671 59.4592 53.7258 59.2327 53.7258C59.0061 53.7258 58.8143 53.6671 58.665 53.5472C58.5131 53.4273 58.4385 53.2541 58.4385 53.0275C58.4385 50.2986 58.3292 48.5478 58.1134 47.7802C58.0041 47.3912 57.8416 47.1113 57.6257 46.9434C57.4098 46.7756 57.1327 46.6903 56.7969 46.6903C56.0507 46.6903 55.4777 46.9914 55.0833 47.591C54.6889 48.1933 54.489 48.9049 54.489 49.7283V53.1235C54.489 53.2967 54.4144 53.4379 54.2625 53.5472C54.1106 53.6565 53.9214 53.7098 53.6949 53.7098C53.4684 53.7098 53.2605 53.6538 53.1086 53.5392C52.9567 53.4246 52.8821 53.2834 52.8821 53.1075C52.8821 50.9196 52.9087 48.8222 52.9647 46.8182C53.0073 45.2699 53.0953 43.559 53.2259 41.6828C53.2578 41.2165 53.5243 40.9846 54.0227 40.9846C54.2599 40.9846 54.4464 41.0353 54.5823 41.1392C54.7182 41.2431 54.7795 41.3897 54.7689 41.5869L54.6063 44.7076L54.5077 46.4957C54.7689 46.16 55.11 45.8828 55.531 45.6669C55.9548 45.4511 56.4638 45.3418 57.0581 45.3418C57.7723 45.3418 58.3372 45.523 58.7476 45.8855C59.158 46.2479 59.4619 46.8102 59.6564 47.5671C59.7976 48.1613 59.8989 48.9129 59.9575 49.8163H59.9549Z" fill="#8F97B5"/>
<path d="M72.184 51.0584C72.2933 51.1676 72.3466 51.3515 72.3466 51.61C72.3466 52.2283 72.1467 52.74 71.7443 53.145C71.3446 53.5501 70.8329 53.7553 70.2173 53.7553C69.3619 53.7553 68.7436 53.3902 68.3652 52.6573C67.9867 51.9271 67.7975 50.7812 67.7975 49.2196C67.7975 48.6679 67.8135 48.1136 67.8455 47.562L67.0647 47.514C66.641 47.4927 66.4304 47.2715 66.4304 46.8477C66.4304 46.6319 66.4864 46.472 66.601 46.3681C66.7156 46.2641 66.9021 46.2188 67.1606 46.2295L67.9574 46.2774C68.0214 45.5952 68.1467 44.6465 68.3305 43.4339C68.3945 43.0449 68.661 42.8477 69.1274 42.8477C69.3965 42.8477 69.607 42.9196 69.7536 43.0582C69.9002 43.1994 69.9615 43.3673 69.9402 43.5619C69.7883 44.5053 69.6577 45.4353 69.5511 46.3574C70.1374 46.3787 70.5211 46.3894 70.705 46.3894C70.9102 46.3894 71.0621 46.4347 71.1607 46.528C71.2593 46.6212 71.3073 46.7625 71.3073 46.9597C71.3073 47.1969 71.2566 47.3621 71.1527 47.4554C71.0488 47.5486 70.8622 47.5993 70.5931 47.6099H69.4391C69.4072 48.1296 69.3912 48.6652 69.3912 49.2196C69.3912 50.3149 69.4605 51.1223 69.6017 51.65C69.7429 52.1777 69.9908 52.4388 70.3506 52.4388C70.761 52.4388 70.9848 52.119 71.0168 51.4794C71.0168 51.2849 71.0621 51.1383 71.1554 51.0397C71.2486 50.9411 71.4112 50.8931 71.6511 50.8931C71.8909 50.8931 72.0801 50.9464 72.1867 51.0557L72.184 51.0584Z" fill="#8F97B5"/>
<path d="M100.603 50.0027C100.624 51.3245 100.635 52.3372 100.635 53.0408C100.635 53.2913 100.568 53.4858 100.433 53.6244C100.297 53.7656 100.099 53.8349 99.8382 53.8349C99.5771 53.8349 99.3745 53.7683 99.228 53.6324C99.0814 53.4965 99.0094 53.3153 99.0094 53.0887V48.505C99.0094 46.9993 98.9561 45.888 98.8469 45.1738C98.7376 44.4596 98.5964 44.1025 98.4231 44.1025C98.2712 44.1025 98.0607 44.345 97.7889 44.8327C97.5171 45.3204 97.2905 45.7974 97.1067 46.2638C96.8242 46.9354 96.5497 47.9001 96.2779 49.1553C96.1793 49.5683 95.8781 49.7735 95.3691 49.7735C94.8601 49.7735 94.5829 49.5843 94.4763 49.2059C94.3991 48.9794 94.3138 48.6702 94.2152 48.2785C93.9887 47.4124 93.7861 46.7515 93.6129 46.2958C93.429 45.7868 93.2025 45.2884 92.9307 44.8007C92.6589 44.3131 92.459 44.0705 92.3284 44.0705C92.0139 44.0705 91.8247 45.5123 91.7608 48.3931C91.7501 48.9128 91.7448 49.6669 91.7448 50.653V53.0914C91.7448 53.2966 91.6728 53.4618 91.5262 53.5871C91.3797 53.7123 91.1718 53.7736 90.9 53.7736C90.6282 53.7736 90.4176 53.7043 90.2977 53.5631C90.1778 53.4219 90.1191 53.206 90.1191 52.9129C90.1191 52.3399 90.1298 51.5431 90.1511 50.5251L90.1671 48.3638C90.1671 46.2078 90.3217 44.6382 90.6308 43.6521C90.94 42.6661 91.441 42.1731 92.1338 42.1731C92.9253 42.1731 93.5649 42.6741 94.0526 43.6761C94.5403 44.6782 94.972 45.9387 95.3531 47.455C95.6889 46.0693 96.1419 44.8407 96.7096 43.7747C97.2772 42.7087 97.9514 42.1731 98.7323 42.1731C99.2093 42.1731 99.5797 42.4156 99.8462 42.8953C100.113 43.3777 100.299 44.0705 100.406 44.974C100.515 45.8774 100.574 47.034 100.584 48.4437L100.6 50.0027H100.603Z" fill="#8F97B5"/>
<path d="M114.706 51.6925C114.706 51.9537 114.733 52.1669 114.786 52.3347C114.839 52.5026 114.906 52.6519 114.981 52.7825C115.055 52.913 115.095 52.993 115.095 53.025C115.095 53.1982 115.023 53.3501 114.877 53.4807C114.73 53.6113 114.565 53.6752 114.381 53.6752C114.165 53.6752 113.952 53.5366 113.747 53.2621C113.542 52.985 113.438 52.7132 113.438 52.4413V52.3427C113.222 52.7984 112.902 53.1476 112.478 53.3901C112.055 53.6326 111.546 53.7552 110.951 53.7552C110.032 53.7552 109.328 53.4327 108.846 52.7878C108.364 52.1429 108.124 51.2474 108.124 50.0989V46.1494C108.124 45.9655 108.196 45.8189 108.342 45.7097C108.489 45.6031 108.675 45.5471 108.902 45.5471C109.128 45.5471 109.339 45.6004 109.496 45.7097C109.653 45.8189 109.731 45.9655 109.731 46.1494V50.1148C109.731 51.6845 110.202 52.4707 111.143 52.4707C111.804 52.4707 112.284 52.1695 112.582 51.5699C112.881 50.9703 113.03 50.0988 113.03 48.9609V46.1494C113.03 45.9335 113.099 45.763 113.24 45.6377C113.382 45.5125 113.571 45.4512 113.808 45.4512C114.045 45.4512 114.259 45.5151 114.41 45.6457C114.562 45.7763 114.637 45.9442 114.637 46.1494L114.701 51.6898L114.706 51.6925Z" fill="#8F97B5"/>
<path d="M123.399 53.3022C122.858 52.9451 122.451 52.4788 122.181 51.9058C122.107 51.7539 122.067 51.634 122.067 51.5487C122.078 51.3755 122.166 51.2183 122.336 51.077C122.504 50.9358 122.685 50.8665 122.88 50.8665C123 50.8665 123.093 50.8931 123.165 50.9464C123.234 50.9997 123.298 51.0663 123.351 51.141C123.405 51.2156 123.445 51.2662 123.466 51.2875C123.759 51.6873 124.036 51.9938 124.303 52.2043C124.569 52.4148 124.918 52.5214 125.35 52.5214C125.75 52.5214 126.086 52.4228 126.357 52.2283C126.627 52.0337 126.763 51.7886 126.763 51.4981C126.763 51.1836 126.621 50.9438 126.339 50.7759C126.056 50.608 125.614 50.4161 125.006 50.2002C124.444 50.0164 123.983 49.8351 123.626 49.6566C123.269 49.478 122.962 49.2275 122.709 48.9077C122.453 48.588 122.328 48.1802 122.328 47.6819C122.328 47.2262 122.456 46.8131 122.709 46.44C122.962 46.0669 123.319 45.7738 123.772 45.5632C124.226 45.3527 124.743 45.2461 125.315 45.2461C125.888 45.2461 126.413 45.358 126.858 45.5792C127.304 45.8004 127.645 46.0962 127.882 46.464C128.119 46.8317 128.239 47.2342 128.239 47.6659C128.239 47.9164 128.183 48.0976 128.068 48.2095C127.954 48.3214 127.767 48.3801 127.509 48.3801C127.25 48.3801 127.074 48.3348 126.989 48.2415C126.901 48.1482 126.853 48.0283 126.843 47.8764C126.8 47.4527 126.651 47.1329 126.395 46.909C126.139 46.6878 125.779 46.5759 125.315 46.5759C124.852 46.5759 124.473 46.6878 124.252 46.909C124.031 47.1302 123.919 47.3781 123.919 47.6472C123.919 47.9723 124.063 48.2228 124.351 48.3961C124.639 48.5693 125.094 48.7638 125.723 48.9824C126.286 49.1769 126.744 49.3608 127.096 49.534C127.447 49.7072 127.749 49.9471 127.996 50.2562C128.244 50.5653 128.37 50.9624 128.37 51.4501C128.37 51.9698 128.226 52.4095 127.938 52.7666C127.65 53.1237 127.274 53.3929 126.808 53.5714C126.341 53.75 125.848 53.8406 125.329 53.8406C124.58 53.8406 123.938 53.662 123.394 53.3049L123.399 53.3022Z" fill="#8F97B5"/>
<path d="M137.334 53.2672C136.679 52.8888 136.186 52.3798 135.855 51.7402C135.525 51.1006 135.36 50.3971 135.36 49.6269C135.36 48.8567 135.538 48.1185 135.895 47.4736C136.252 46.8287 136.756 46.3197 137.406 45.9466C138.057 45.5735 138.797 45.387 139.632 45.387C140.367 45.387 141.031 45.5362 141.622 45.8347C142.214 46.1332 142.675 46.5515 143.011 47.0952C143.346 47.6362 143.514 48.2545 143.514 48.9473C143.514 49.3151 143.461 49.5789 143.352 49.7362C143.243 49.8934 143.021 49.9787 142.686 49.9893L136.82 50.0693C136.82 50.4264 136.935 50.7942 137.161 51.1752C137.388 51.5537 137.715 51.8708 138.144 52.1266C138.574 52.3825 139.075 52.5077 139.648 52.5077C140.058 52.5077 140.41 52.4518 140.695 52.3372C140.983 52.2226 141.212 52.0893 141.385 51.9321C141.558 51.7749 141.763 51.567 142.003 51.3058C142.123 51.1859 142.273 51.1273 142.459 51.1273C142.632 51.1273 142.798 51.1939 142.955 51.3298C143.112 51.4657 143.189 51.6203 143.189 51.7935C143.189 51.9348 143.141 52.0707 143.043 52.1986C142.739 52.633 142.334 53.0141 141.825 53.3445C141.316 53.675 140.607 53.8402 139.696 53.8402C138.784 53.8402 137.987 53.651 137.332 53.2726L137.334 53.2672ZM141.99 48.8328C142.054 48.8328 142.102 48.8141 142.129 48.7768C142.155 48.7395 142.169 48.6808 142.169 48.6062C142.169 48.0333 141.926 47.5642 141.446 47.2018C140.967 46.8394 140.359 46.6582 139.634 46.6582C139.083 46.6582 138.592 46.7887 138.163 47.0472C137.734 47.3084 137.404 47.6175 137.172 47.9826C136.94 48.3451 136.823 48.6622 136.823 48.934L141.99 48.8354V48.8328Z" fill="#8F97B5"/>
</svg>
