<svg width="65" height="92" viewBox="0 0 65 92" fill="none" xmlns="http://www.w3.org/2000/svg">
<g id="Layer_1" clip-path="url(#clip0_88_2085)">
<path id="Vector" d="M52.4472 78.7349C50.7508 73.8978 47.0842 70.0928 43.6667 66.3754C41.2574 63.7446 38.6287 61.2641 39.071 57.3386C39.1502 56.6384 39.3185 55.958 39.637 55.3255C39.6766 55.2495 39.769 55.2198 39.8465 55.2578C39.9092 55.2908 39.9389 55.3585 39.929 55.4246C39.7591 57.2759 40.2657 59.1701 41.3267 60.6779C42.4538 62.2203 43.9059 63.4209 45.2739 64.8016C48.1832 67.6173 51.0495 70.575 53.0709 74.1405C54.0726 75.9274 54.8696 77.9207 55.1568 79.9834C61.2277 72.5683 65.0016 62.2005 65.0016 50.7262C65.0016 34.6988 57.6436 20.8283 46.9389 14.1515C47 15.4495 47.1551 16.7393 47.4389 18.0076C47.599 18.7326 47.8152 19.4741 48.0495 20.1793C49.302 23.9958 49.5776 28.2697 48.1502 32.073C47.9208 32.6643 47.6683 33.234 47.3482 33.7773C47.5478 34.0234 47.7541 34.2645 47.9703 34.499C48.3779 34.9515 48.8696 35.4057 49.2492 35.8895C50.0891 36.9201 50.6931 38.1619 50.9472 39.4699C51.5429 42.6539 50.3317 45.8891 48.4274 48.4604C48.137 49.5702 47.8366 50.675 47.6221 51.7848C47.4868 52.4074 47.3746 53.205 47.2838 53.8326C47.2475 54.1711 47.1766 54.873 47.1386 55.2132C47.0594 56.3015 47.0148 57.6045 47.0132 58.7011C47.0231 59.0809 47.0627 60.4186 47.0693 60.8083C47.1023 61.3318 47.1683 62.402 47.1997 62.9189C47.2723 63.8569 47.3713 64.7949 47.4472 65.7363C47.4653 65.8849 47.3548 66.0203 47.2063 66.0319C47.071 66.0434 46.9505 65.9477 46.9257 65.8172C46.7673 64.9584 46.5413 63.8536 46.4076 63.0114C46.335 62.4978 46.1733 61.3731 46.104 60.8876C45.929 59.2956 45.7805 57.4641 45.7954 55.8655C45.7822 53.4577 46.0974 51.0119 46.6056 48.6768C47.0924 46.4242 48.2838 41.6961 46.7046 39.8382C46.6122 39.7011 46.4274 39.5244 46.3168 39.4005C45.5198 38.6376 44.6106 38.048 43.6386 37.4155C42.8069 36.8722 40.835 35.6303 40.0545 35.0556C38.4158 33.8599 36.9257 32.2844 36.297 30.2961C35.9389 29.1219 35.9257 27.8404 36.2492 26.6563C35.9406 26.7752 35.6238 26.8776 35.2987 26.9601C33.3152 27.4655 31.6683 26.8957 30.2541 25.4573C29.8284 25.0246 29.4488 24.554 29.1089 24.0569C28.9439 25.9775 27.7442 27.7776 25.7673 28.3143L25.4571 28.3969L25.1469 28.4563C23.8828 28.6628 22.5743 28.6892 21.3086 28.5967C20.5941 28.5389 19.8927 28.4646 19.2162 28.3738C17.5347 28.1888 16.1634 27.9262 14.8812 28.6727C14.2904 29.0261 13.8102 29.5645 13.4373 30.1474C13.0825 30.7865 12.8878 31.4669 12.7607 32.2398C12.4538 34.1951 12.5495 36.1835 12.6716 38.1884C12.8597 40.938 13.1964 43.6778 13.3267 46.4555C13.3878 47.889 13.3993 49.3159 13.2244 50.7592C12.6881 54.7442 12.0215 59.0495 11.4653 63.0328C10.9472 66.9848 10.3564 71.338 9.75247 75.28C9.73762 75.3742 9.65016 75.4386 9.5561 75.4254C9.47855 75.4138 9.42079 75.3527 9.41089 75.2784C9.0231 72.5072 9.04785 69.708 9.22112 66.9435C9.60561 61.5201 10.4307 55.8986 11.137 50.4967C11.2921 49.2283 11.2838 47.889 11.231 46.5447C11.1172 43.8132 10.802 41.0751 10.6221 38.3254C10.4901 36.2132 10.3894 34.035 10.7294 31.8996C11.0677 29.2837 12.835 26.7653 15.5083 26.1327C16.797 25.8223 18.2079 25.9247 19.4686 26.0419C21.4818 26.2269 23.3086 26.4564 25.2591 26.2384C26.9059 26.0023 27.8812 24.5407 28.495 23.0544C27.7178 21.6127 27.2426 20.0009 27.0215 18.3841C26.8465 17.0861 26.8482 15.7534 26.9653 14.4487L27 14.1217C27.0297 13.6395 27.1914 13.0945 27.4125 12.6701C27.5578 12.5495 27.764 12.4785 27.9554 12.4703L27.9901 12.4653L28.0627 12.4538C30.7508 11.998 33.6898 11.4216 35.6106 9.33086C35.8746 9.03524 36.1089 8.70991 36.3284 8.36641L36.4092 8.2409C36.5379 8.03942 36.8036 7.98162 37.0049 8.11043C37.1073 8.17484 37.1716 8.27723 37.1947 8.38787L37.5182 8.87671C37.8531 9.37049 38.2162 9.84941 38.5974 10.3019C39.2426 11.0864 39.9785 11.7403 40.7426 12.3794C42.698 14.168 42.9521 17.1621 42.2987 19.5814C41.5858 22.4302 39.6287 25.0246 36.9901 26.3326C36.8894 29.2276 38.1881 31.4736 40.566 33.1746C42.9109 34.8475 45.5561 36.0134 47.6865 38.0315C47.7838 38.1322 48.0132 38.3898 48.104 38.4889C48.4059 38.8754 48.7079 39.3213 48.8894 39.7804C49.3713 40.8934 49.4092 42.1469 49.3432 43.3376C49.3086 44.4077 49.137 45.4647 48.9059 46.5133C49.6106 44.7496 50.0495 42.8917 49.9587 40.9991C49.8647 39.3477 49.2211 37.754 48.1551 36.494C47.363 35.6303 46.5413 34.7682 45.8911 33.7839C44.1023 31.1499 43.1683 27.9378 43.2987 24.7538C43.3267 24.1246 43.3861 23.5003 43.5264 22.8827C43.5346 22.8447 43.5726 22.8199 43.6122 22.8298C43.6469 22.8381 43.67 22.8711 43.6667 22.9058C43.5875 26.6265 44.7607 30.3621 46.995 33.3281C48.4059 29.2722 48.0429 24.7092 46.4653 20.754C46.1683 20.0075 45.896 19.2297 45.6799 18.4584C45.0132 16.1348 44.8185 13.6312 44.8218 11.2565C44.7772 8.3565 45.0974 5.38553 43.0016 3.19901C42.071 2.21309 40.7508 1.46002 39.4224 0.845683C36.8333 -0.409422 33.5941 -0.255837 31.1799 1.28827C28.1205 3.22378 26.4208 6.76945 25.929 10.2804C25.8449 10.8006 25.802 11.4695 25.7376 11.9947C25.6139 13.007 25.4257 14.0193 25.1469 15.0119C24.9224 15.8095 24.6304 16.6006 24.2574 17.347C23.571 18.7821 22.6106 19.9266 22.0743 21.3881C21.5842 22.7291 21.4868 24.2633 21.4455 25.8091C21.4406 25.9924 21.2888 26.1361 21.1056 26.1311C20.9488 26.1261 20.8201 26.0138 20.7904 25.8652C20.6337 25.0857 20.5264 24.2881 20.5033 23.4723C20.4125 21.834 20.8845 20.0884 21.67 18.6682C22.038 17.9581 22.3861 17.3024 22.6584 16.6253C23.2789 15.1159 23.5578 13.4512 23.6865 11.7915C23.6931 11.6726 23.6997 11.5537 23.7063 11.4332C10.0281 16.2455 0 32.0136 0 50.7246C0 65.9559 6.64521 79.2369 16.4917 86.249C16.4571 82.6075 16.7459 78.9132 17.5363 75.351C18.1634 72.5898 19.0033 69.9987 19.363 67.2176C19.8515 63.1253 19.3284 59.0297 18.5825 54.9292C18.5561 54.8119 18.6337 54.6947 18.7508 54.6732C18.8449 54.655 18.9356 54.7029 18.9785 54.7822C20.9274 58.6763 21.8894 63.0857 21.5479 67.4521C21.3234 70.3092 20.5231 73.1183 19.9472 75.868C19.3713 78.5648 19.0924 81.2913 18.9175 84.046L18.8152 86.1251C18.8003 86.6553 18.7822 87.1854 18.7607 87.7171C22.934 90.1646 27.5891 91.5353 32.4983 91.5353C40.3366 91.5353 47.5264 88.0507 53.1386 82.2492C53.0693 81.0502 52.8284 79.8744 52.4439 78.7332L52.4472 78.7349ZM40.0247 54.3181C40.033 54.2818 40.0611 54.2537 40.0941 54.2438C41.0578 53.9284 41.9257 53.5799 42.5495 53.0052C44.5429 51.1837 44.3317 47.7404 44.4389 45.1806C46.132 48.2342 45.9505 53.8838 41.6749 54.5146C41.1386 54.5972 40.604 54.5444 40.099 54.4337C40.0462 54.4222 40.0115 54.3693 40.0231 54.3165L40.0247 54.3181ZM14.6254 49.9087C13.7888 47.1426 14.7789 44.1039 16.137 41.7208C16.9257 40.3716 17.8795 39.1363 19.0281 38.0827C19.0957 38.0133 19.2228 38.086 19.1914 38.1818C18.335 40.938 16.9059 43.7373 16.2954 46.5233C15.5858 49.7766 16.396 51.7947 19.2178 53.5452C17.1205 53.3173 15.2624 52.0061 14.6254 49.9087Z" fill="#FEC72E"/>
<path id="Vector_2" d="M41.0379 19.2824C41.5577 17.1355 41.0214 15.2594 39.4934 13.679C38.302 12.6254 37.3036 11.3306 36.6996 9.86084C35.1765 12.6122 31.6749 14.0225 28.6056 14.1579C28.6006 14.1794 28.5957 14.2058 28.5907 14.224C28.5693 14.3165 28.5181 14.5675 28.4967 14.6633C27.8911 17.7796 28.3762 21.2096 30.2227 23.8338C30.8795 24.7437 31.7987 25.6454 32.8449 25.9807C34.2888 26.4068 35.934 25.8254 37.1831 25.0179C39.1732 23.7281 40.5528 21.5911 41.0396 19.2807L41.0379 19.2824Z" fill="#FEC72E"/>
</g>
<defs>
<clipPath id="clip0_88_2085">
<rect width="65" height="91.5385" fill="white"/>
</clipPath>
</defs>
</svg>
