<svg width="150" height="57" viewBox="0 0 150 57" fill="none" xmlns="http://www.w3.org/2000/svg">
<g id="Group">
<g id="Group_2">
<g id="Group_3">
<path id="Vector" d="M11.3564 2.69032C12.4236 3.15442 13.8106 3.532 15.2422 3.75225C16.5165 3.98823 17.6335 4.25043 18.4254 5.08686L18.5067 5.17339L18.6194 5.21009C18.7531 5.25467 18.8711 5.27302 18.976 5.27302C19.3877 5.27302 19.5791 4.9846 19.6525 4.87447L19.7233 4.76697L19.878 4.61489L19.9121 4.49166C20.1035 3.78371 19.9593 3.08887 19.5161 2.58282L19.4034 2.48843C18.3546 1.85914 17.2192 1.60218 16.0944 1.34785C14.6733 1.10924 13.336 0.776243 13.1131 0.605811L12.4629 0.222995C12.067 0.00274424 11.7156 -0.0549408 11.3905 0.0525624C11.0549 0.162688 10.7795 0.440623 10.575 0.878502L10.5409 0.986004C10.3967 1.70444 10.7717 2.47269 11.3564 2.69032Z" fill="#1E233A"/>
<path id="Vector_2" d="M36.3915 31.0344L36.2814 31.0764C35.0071 31.7371 33.9058 32.3087 32.5686 32.0229C31.0032 31.3832 29.5218 30.6097 28.1688 29.7234C26.9496 28.9106 25.8064 28.0794 24.6868 27.1905C25.9873 25.5098 27.1017 23.5485 28.001 21.3487C28.7824 19.3952 29.3855 17.3134 29.7945 15.1738C30.0829 13.7343 29.7499 12.6802 28.7798 11.9513L28.6985 11.9015C27.6156 11.3876 26.454 11.4374 25.3397 12.0509C25.2426 12.0929 24.9988 12.2135 24.2017 12.7432C24.2909 12.2528 24.3485 11.752 24.3485 11.2486C24.3485 10.5459 24.2201 9.94545 23.971 9.45251C23.7166 8.81536 23.1345 8.41943 22.4502 8.41943L22.3846 8.42468C22.0464 8.47187 21.5561 8.57938 21.1837 8.95171L21.0448 9.09067V9.28732C21.0448 9.75929 21.2467 10.0818 21.3961 10.3152L21.4853 10.4541C21.661 10.6849 21.6846 10.8081 21.6872 10.8815C21.737 11.8936 21.328 14.5733 20.877 15.2682L20.6384 15.7428C20.4234 16.2803 20.544 16.7994 20.9399 17.1377C21.383 17.5834 22.07 17.5467 22.7779 17.0407L24.0968 15.6326C24.5976 15.1816 25.0198 14.8093 25.4393 14.513C26.0004 14.1931 26.5406 14.0568 27.2039 14.0778C27.2537 14.1459 27.2826 14.277 27.2878 14.4501C26.8867 16.3694 26.2993 18.8525 25.3134 21.1363C24.574 22.8118 23.7219 24.2303 22.715 25.4574C22.0018 24.9487 21.0264 24.2093 20.2398 23.58C21.8052 23.074 23.1975 22.5076 24.3905 21.894L24.4482 21.8573C24.6842 21.6895 25.3082 21.2438 25.2348 20.4624C25.2269 20.1242 25.0591 19.8934 24.9568 19.7545L24.8546 19.6076L24.7759 19.5552C24.6658 19.4818 24.5609 19.411 24.5164 19.3428L24.4534 19.2458L23.874 18.9207C23.1424 18.5064 22.3846 18.079 21.5639 17.7775C20.856 17.5572 19.781 17.3343 18.5984 17.9584L18.4804 18.0134L18.4123 18.1498L18.3179 18.197L18.1894 18.3543C17.9954 18.5903 17.7541 18.884 17.7541 19.3585L17.7594 19.4372C17.8485 19.9773 18.3441 20.2238 18.7662 20.2238H18.8947L19.0048 20.1583C19.448 19.9013 19.8491 19.9328 20.287 20.0508C20.5335 20.132 20.7826 20.2343 21.0238 20.3339C21.3568 20.4677 21.6977 20.6092 22.0044 20.6905C22.0254 20.6984 22.0438 20.7036 22.0648 20.7115C21.4145 21.0078 20.717 21.2648 20.0458 21.5112L19.7888 21.5925C18.9157 21.8678 18.0137 22.151 17.1353 22.5679L16.9885 22.6387L16.9151 22.7829C16.6896 23.2339 16.7447 23.7216 17.0672 24.1254L17.1432 24.2014C18.4647 25.2502 19.7705 26.3358 20.9399 27.3636C20.8796 27.4134 20.8219 27.4632 20.7642 27.5131C20.0982 28.0847 19.4689 28.6248 18.8082 29.0312C18.116 29.4586 17.4238 29.7444 16.6817 29.9096C16.4353 29.9725 16.1599 30.0171 15.8663 30.0643C15.5018 30.1246 15.0875 30.1901 14.6601 30.3055L14.2563 30.413L14.3166 30.8273C14.3953 31.3727 14.668 31.6113 14.8987 31.7634L15.4231 32.0544L15.5149 32.0649C16.8233 32.217 18.0766 32.0387 19.2513 31.5352C20.6777 30.8955 21.931 29.8939 22.9038 29.026C24.1729 30.0669 25.4865 31.1183 26.9155 31.9495C27.217 32.1357 27.5159 32.3323 27.8122 32.5264C28.528 32.9957 29.2675 33.4808 30.0593 33.8426C31.1081 34.3434 32.0914 34.5873 33.0956 34.5873C33.3998 34.5873 33.7066 34.5637 34.016 34.5191C34.6584 34.4195 35.4135 34.2648 36.1346 33.8767C36.874 33.4729 37.3774 32.9066 37.6291 32.196L37.6842 32.0413L37.6317 31.8866C37.3014 30.8928 36.5908 30.9846 36.381 31.0371L36.3915 31.0344Z" fill="#1E233A"/>
<path id="Vector_3" d="M17.8118 9.23761C18.7217 8.39856 18.6299 7.58835 18.2654 7.13736C17.8826 6.56051 17.0724 6.32453 16.3146 6.57362C13.003 7.58573 10.1896 8.4274 7.76681 9.1301C7.90578 8.84168 8.00017 8.41167 7.74846 7.85842L7.52821 7.37334L5.30735 8.73155C4.72001 9.08291 4.15366 9.57585 3.71053 10.1134L3.63712 10.2366C3.36443 10.9209 3.66596 11.6525 4.08548 12.072L4.14579 12.1218C4.61251 12.4548 5.07923 12.4548 5.45156 12.4548L5.58528 12.4365C7.08246 11.996 8.82611 11.4742 10.5278 10.8554C11.4167 10.5303 12.3527 10.2025 13.3308 9.93245C11.0103 12.1926 8.82873 14.4056 6.82288 16.5268C4.30049 19.2721 2.16878 21.7735 0.291404 24.2015C0.176035 24.3772 0.115727 24.5686 0.06853 24.7207L0.0318257 24.8387C-0.0782995 25.2792 0.102615 25.7144 0.493298 25.9478L0.606051 26.016H0.737152C1.19076 26.016 1.54211 25.8377 1.76761 25.704L1.87249 25.6174C2.5647 24.8623 3.24906 24.0835 3.97274 23.2602C4.42635 22.7437 4.88782 22.2167 5.36503 21.6818C6.15951 20.7876 7.17948 19.6654 8.36988 18.4934C8.27024 19.5317 8.13914 20.5674 8.01066 21.5769C7.91627 22.3215 7.82188 23.0688 7.73535 23.824C7.5387 25.7564 7.38924 27.9353 7.33942 29.6685C7.33942 30.497 7.46003 31.281 7.7065 32.0781C7.96084 32.8437 8.69239 33.3865 9.44229 33.3865C9.48424 33.3865 9.52619 33.3865 9.56815 33.3813L9.7412 33.3655L9.86444 33.2423C10.714 32.3928 11.3275 31.4016 11.7916 30.1221C12.0643 29.3748 12.2452 28.5829 12.4183 27.8173C12.5048 27.4397 12.5913 27.0622 12.6884 26.6846C12.7303 26.5142 12.7513 26.1759 12.4157 25.8429L12.2951 25.7564C12.0669 25.641 11.8283 25.6227 11.6264 25.7066C11.4586 25.7747 11.3302 25.9085 11.2594 26.0815C11.0103 26.5482 10.811 27.0386 10.617 27.5132C10.5357 27.7098 10.457 27.9091 10.3757 28.0926C10.2971 28.2631 10.2237 28.4335 10.1529 28.5961C10.1135 28.6878 10.0742 28.777 10.0375 28.8635C10.048 27.8383 10.1162 26.6898 10.242 25.3395C10.4334 23.3677 10.6746 21.4327 10.9762 19.4137C11.1597 18.0686 11.0391 17.0067 10.6117 16.1807L11.2436 15.5488C13.3281 13.4591 15.4861 11.2959 17.8092 9.23236L17.8118 9.23761Z" fill="#1E233A"/>
</g>
<g id="Group_4">
<path id="Vector_4" d="M42.8548 6.63379C43.0777 6.94057 43.4211 7.06905 43.8223 6.99301C45.3562 6.62854 48.4895 7.24472 49.8844 7.8373C50.1624 8.00511 50.3748 8.16243 50.5032 8.29091L50.574 8.35122C50.8808 8.55574 51.2296 8.7891 51.7041 8.90709L51.9978 8.98051L52.1866 8.74452C52.4409 8.42463 52.5222 8.04706 52.4226 7.64589C52.378 7.47284 52.3387 7.31027 52.3387 7.1713V7.02709L52.26 6.9091C51.6963 6.06219 50.8651 5.4093 49.7769 4.96093C48.6233 4.51781 45.1595 3.73382 43.4369 4.42342L43.1222 4.60434L43.0331 4.67513C42.8364 4.87178 42.2465 5.46174 42.5873 6.13036C42.6398 6.2903 42.7106 6.47647 42.8522 6.63379H42.8548Z" fill="#1E233A"/>
<path id="Vector_5" d="M54.4415 14.8564C53.9879 14.7752 53.5605 15.0452 53.3849 15.5277C52.5747 18.0763 51.8536 19.9668 51.0486 21.6606C50.5872 22.6412 50.0785 23.6376 49.5148 24.6707C49.7665 22.5573 49.9448 20.402 49.9841 18.9127C49.9841 17.5493 49.7062 16.4664 49.1608 15.6929L49.1162 15.6404C48.1854 14.6624 46.8691 14.1537 45.4191 14.214C43.9429 14.256 42.2675 14.7699 40.3088 15.7873C39.8604 16.0127 39.6874 16.3248 39.6192 16.5476C39.5222 16.8649 39.572 17.2189 39.7529 17.5519C39.9994 18.1025 40.5946 18.5981 41.2239 18.4381L41.4966 18.3149C42.5926 17.7669 43.7253 17.1979 44.8738 17.0222C45.6813 16.8859 46.3211 16.9934 46.9425 17.3631C47.231 17.7066 47.3699 18.0212 47.3699 18.3044C47.2677 20.6537 46.9111 24.5632 46.5388 27.4028L46.5335 27.4632C46.5335 27.568 46.4994 27.7201 46.4627 27.8801C46.4365 27.9928 46.4129 28.1056 46.3919 28.2209C46.3762 28.3101 46.3578 28.3992 46.3369 28.4884C46.2897 28.6981 46.2372 28.9341 46.2372 29.1832C46.2372 30.0616 46.5099 30.6201 47.0501 30.8403C47.2257 30.9347 47.4093 30.9714 47.5902 30.9714C48.0464 30.9714 48.4948 30.7302 48.8304 30.5152L48.9091 30.4654L48.9641 30.3893C50.6449 27.9954 52.066 25.4206 53.1935 22.7251C54.0928 20.4545 54.7614 18.1602 55.1836 15.9079L55.1915 15.8213C55.1915 15.3336 54.882 14.9377 54.4415 14.8591V14.8564Z" fill="#1E233A"/>
<path id="Vector_6" d="M73.6086 27.7333L73.4801 27.7727C72.607 28.1948 71.6919 28.735 70.7113 29.4062C70.7322 29.317 70.748 29.2279 70.7637 29.1414C70.9184 27.8907 70.3101 26.792 69.1485 26.2126C68.2072 25.6882 66.8543 25.5361 65.7163 25.8219C64.1588 26.1863 62.6747 27.2535 61.7387 28.6851C61.563 28.9631 61.4109 29.2594 61.2746 29.574C61.23 29.1178 61.2143 28.6458 61.2352 28.1686C61.2851 26.9022 61.5473 25.8324 62.0166 24.9828C62.7481 23.6194 63.6711 22.6204 64.7619 22.0147C68.3409 21.3015 71.2566 20.8741 73.6715 20.7115L73.96 20.6906L74.2589 19.9931V19.8961C74.2589 19.2878 73.8315 18.8001 73.4093 18.5877L73.3202 18.5431L73.2205 18.5379C71.1203 18.4356 68.556 18.7791 66.7808 19.0859C66.0257 19.2144 65.2758 19.3743 64.539 19.5395C65.2207 19.0806 65.8815 18.572 66.5029 17.9741L68.2754 16.2488C68.8706 15.6536 69.4841 15.0401 69.9509 14.3662C70.4779 13.6163 71.3405 12.1296 71.2121 10.6089C71.0626 9.15888 70.1633 8.17562 68.7002 7.84262C67.89 7.62761 67.0404 7.65121 66.2617 7.74036C66.4767 6.51849 66.6497 5.26254 66.3325 3.99086C66.0283 2.92369 65.2365 2.04793 63.9989 1.40029C62.8662 0.760515 61.3454 0.398675 60.0134 0.453737C58.7233 0.5088 57.5539 0.93619 56.6205 1.70707C56.0043 2.26556 55.6792 2.98137 55.6792 3.77585C55.6792 4.62801 55.9335 5.58767 56.374 6.40837L56.4553 6.51849C56.8355 6.89869 57.2943 6.87771 57.8214 6.45556L57.9997 6.31397V6.08586C57.9997 5.88658 57.9944 5.68207 57.9892 5.47755C57.9787 5.08424 57.9682 4.67783 57.9944 4.34745C58.0888 3.78634 58.2514 3.4848 58.5346 3.31175C59.1901 2.96564 60.0317 2.866 61.0543 3.01808C61.8383 3.1151 62.5908 3.36157 63.1336 3.69194C63.7131 4.03281 63.9805 4.57557 63.9805 5.39889C63.9805 6.0911 63.8573 7.32346 63.6921 8.32245C61.9537 8.86259 59.6227 9.85634 58.3222 10.8684C57.3887 11.5685 56.7332 12.5098 56.5208 13.4669C56.3268 14.4947 56.7096 15.5225 57.6063 16.3642C58.6421 17.2793 60.037 17.6175 61.2615 17.2452C62.4335 16.8545 63.1887 15.7847 63.8153 14.8985C64.7802 13.4511 65.2784 11.8648 65.7189 10.2287C66.461 10.0871 67.2554 9.97171 67.8559 10.0818C68.16 10.2077 68.5245 10.4175 68.6241 10.7085L68.6425 10.7557C68.8313 11.1726 68.7133 11.8176 68.3173 12.4889C67.2266 14.3977 64.3974 16.6684 63.2306 17.5572C61.2903 19.0439 58.9174 20.3838 56.3294 21.4405C55.7264 21.742 55.3802 22.2349 55.3802 22.7961V22.9272L55.4484 23.0399C55.6425 23.3624 55.8889 23.5092 56.1249 23.6482L56.3006 23.7531L56.4212 23.7583C57.4333 23.8055 58.469 23.6587 59.6594 23.2995C59.9059 23.2339 60.1523 23.1579 60.3988 23.0792C59.8429 23.8921 59.4182 24.8229 59.1298 25.8691C58.6814 27.5655 58.6106 29.3538 58.9252 31.1787L58.9436 31.2495C59.0275 31.5012 59.1009 31.7529 59.1743 31.9994C59.274 32.3376 59.3736 32.6654 59.4942 33.001C59.7538 33.625 60.0789 34.2805 60.6925 34.839L60.7659 34.9072L60.8603 34.9387C61.3087 35.0908 61.8226 35.0436 62.1634 34.8207C62.4204 34.6555 62.5777 34.3959 62.6092 34.0839C62.7167 32.647 62.9343 31.551 63.3224 30.5179C63.6423 29.595 64.6098 28.7245 65.7976 28.2971C66.5711 27.9982 67.3367 28.0139 67.9555 28.3443C68.0289 28.4229 68.0971 28.5776 68.0604 28.9998C67.848 29.7471 67.4704 30.5074 66.9093 31.3255C66.2958 32.2223 65.4646 33.0534 64.657 33.8636L64.5941 33.9266L64.3974 34.3907C64.2506 34.8338 64.4315 35.1379 64.6098 35.3162L64.8563 35.5077L64.8956 35.5339C65.1473 35.6833 65.3728 35.7384 65.5695 35.7384C65.795 35.7384 65.9811 35.665 66.1201 35.5837L66.1463 35.568C67.2711 34.7892 68.3724 33.9633 69.4343 33.1636C70.7742 32.1567 72.1612 31.1158 73.5745 30.1902C74.1723 29.9122 74.6574 29.3983 74.8724 28.8057L74.9353 28.6301L74.8619 28.457C74.6364 27.93 74.1435 27.6468 73.6138 27.736L73.6086 27.7333ZM62.8688 11.0939C62.465 12.2607 62.0166 13.1732 61.5053 13.8785C61.0098 14.597 60.6322 14.8172 60.425 14.8959C60.2153 14.9876 59.8665 15.0558 59.2635 14.5839C58.9672 14.3164 58.8597 13.9651 58.941 13.5324C59.4077 13.0159 60.1654 12.4443 61.0517 11.954C61.6416 11.6131 62.2788 11.3299 62.8714 11.0966L62.8688 11.0939Z" fill="#1E233A"/>
</g>
<g id="Group_5">
<path id="Vector_7" d="M118.298 29.2752L118.212 29.1729C117.703 28.5699 116.875 28.368 115.755 28.5699C113.324 28.992 110.957 29.6842 108.961 30.3057C107.54 30.7566 106.127 31.2627 104.758 31.7504C104.509 31.8395 104.257 31.9287 104.008 32.0178C104.74 30.0854 105.123 27.8645 105.152 25.3946C105.637 25.1481 106.132 24.9016 106.628 24.6578C107.8 24.0783 109.011 23.4779 110.162 22.8198C110.894 22.4265 111.701 21.6267 111.833 20.8349C111.911 20.1348 111.536 19.537 110.805 19.1882C109.507 18.3728 108.07 17.6229 106.536 16.9569C105.807 16.6501 104.74 16.304 103.89 16.8441C103.384 17.1614 103.028 17.6989 102.802 18.4908L102.787 18.5852C102.716 19.5317 102.674 21.0945 102.634 22.4763C102.621 22.9115 102.611 23.3206 102.6 23.6719C101.289 24.2828 100.094 24.7653 98.9531 25.1403C99.4959 24.6106 99.9416 24.115 100.461 23.4517C100.673 23.1318 100.796 22.6388 100.592 22.2586C100.448 21.9886 100.167 21.8339 99.821 21.8339H99.6453L99.5142 21.9466C99.4303 22.02 99.2127 22.18 98.919 22.3976C97.9882 23.0898 96.4307 24.2514 95.6048 25.114C94.5638 26.155 94.6923 27.0176 94.8785 27.4765C95.2482 28.2159 96.2183 28.5463 97.3589 28.3182L97.4114 28.305C99.0449 27.7754 100.673 27.1907 102.488 26.488C102.454 28.3889 102.252 30.3057 101.376 31.85L101.334 31.9234L101.321 32.0047C101.308 32.0834 101.232 32.225 100.951 32.4505C100.416 32.8779 99.8393 33.6382 99.8393 34.2938V34.3541C99.8944 34.7683 100.162 35.4789 101.363 35.5523L101.46 35.5576L102.433 35.2115C104.929 34.3174 107.286 33.4757 109.688 32.731H109.693C112.417 31.8553 114.982 31.2496 117.528 30.8799L117.625 30.8537C118.152 30.657 118.419 30.1038 118.319 29.4115L118.301 29.2778L118.298 29.2752ZM105.291 22.5104C105.291 21.4668 105.361 20.4101 105.516 19.1935C105.61 19.1856 105.77 19.2223 105.899 19.2853L105.949 19.3062C107.087 19.7153 107.795 20.0273 108.901 20.751C108.885 20.7615 108.87 20.7719 108.857 20.7824L108.809 20.8165C107.53 21.4563 106.371 22.0148 105.291 22.5104Z" fill="#1E233A"/>
<path id="Vector_8" d="M98.5441 10.989C99.0082 10.774 99.4749 10.5957 99.9023 10.4463C99.8918 10.6193 99.884 10.7924 99.8735 10.9654C99.8289 11.752 99.787 12.4941 99.787 13.2151C99.787 14.2902 100.049 15.0978 100.547 15.5933C100.888 15.9735 101.497 16.3826 102.532 16.3826C102.729 16.3826 102.944 16.3668 103.172 16.3354C104.006 16.2226 104.84 16.0233 105.647 15.8293C105.917 15.7664 106.185 15.7008 106.455 15.6405L106.476 15.6353C107.664 15.3101 108.684 15.1607 109.693 15.1607C110.251 15.1607 110.687 14.8093 110.771 14.2849C110.857 13.7474 110.55 13.0683 109.793 12.8166L109.724 12.7982C108.408 12.5701 107.247 12.7851 106.363 13.008C106.117 13.0814 105.87 13.1601 105.624 13.2361C104.926 13.4537 104.205 13.6792 103.505 13.8235C102.438 13.813 102.338 13.4275 102.304 12.8218C102.304 12.0588 102.422 10.5092 102.603 9.27948C103.93 8.74983 105.354 8.2464 106.733 7.75608C107.69 7.41521 108.642 7.07697 109.567 6.73087C110.092 6.53421 110.307 6.18286 110.39 5.92328C110.548 5.44869 110.425 4.85874 110.044 4.26616L109.824 4.04328C108.676 2.99447 107.247 1.68608 105.77 0.999107C104.821 0.553362 103.932 0.403907 103.18 0.579583C102.317 0.826054 101.635 1.49729 101.2 2.53037C100.597 4.06164 100.332 5.63486 100.117 7.64333C99.724 7.81901 99.3255 7.98682 98.9374 8.14676C98.0512 8.51385 97.1335 8.89404 96.2472 9.41844C95.1066 10.0687 94.265 10.9917 93.6121 12.3027C93.4154 12.6567 93.4705 13.0526 93.7511 13.3122C94.0631 13.6006 94.5796 13.6478 94.9598 13.3908C96.4229 12.2109 97.1571 11.6183 98.5467 10.9943L98.5441 10.989ZM102.939 6.48702C103.099 5.41198 103.34 4.38939 103.589 3.42711C103.99 3.02331 104.365 2.94203 104.853 3.13606L104.892 3.14917C105.298 3.27241 105.773 3.62376 106.303 4.19536L106.339 4.22945C106.586 4.44708 106.822 4.69092 107.047 4.92953C107.063 4.94526 107.076 4.96099 107.092 4.97673C106.012 5.40149 104.237 6.04389 102.939 6.48177V6.48702Z" fill="#1E233A"/>
<path id="Vector_9" d="M90.8064 5.323C89.6895 5.37019 88.0271 5.871 86.7161 7.12433C84.3615 9.3819 82.3976 12.8115 80.7877 15.8714C80.4704 16.3591 80.2816 16.9779 80.2816 17.5364C80.2816 18.226 80.5464 18.5406 80.7693 18.6849C80.8637 18.7452 81.0236 18.8212 81.2439 18.8212C81.3855 18.8212 81.5507 18.7897 81.7368 18.7058L81.8679 18.6455L81.944 18.5249C82.138 18.2129 82.3819 17.8039 82.6624 17.3293C83.6614 15.6512 85.1717 13.1104 86.7318 11.0941C88.8242 8.31998 89.637 8.08924 90.2375 8.08924C90.9113 8.08924 91.4908 8.08924 92.3849 7.58581L92.4898 7.52813L92.5527 7.42587C92.9591 6.78347 92.8516 6.31675 92.6917 6.03881C92.4033 5.54063 91.7294 5.28367 90.8064 5.32824V5.323Z" fill="#1E233A"/>
<path id="Vector_10" d="M88.5752 29.5451L88.4048 29.5608L88.3523 29.6132C88.3523 27.0856 88.3628 24.6812 88.549 22.2348C88.6276 20.9605 88.7561 19.6705 88.8794 18.4224C89.0655 16.5477 89.2569 14.6126 89.2884 12.6802V12.591L89.2596 12.5097C88.7378 11.0965 87.9957 11.0729 87.6051 11.1882L87.5002 11.2328C87.0046 11.516 86.5327 12.3603 86.6874 12.9869C86.7005 13.0446 86.7188 13.1049 86.7372 13.1679C86.7739 13.2963 86.8132 13.4274 86.8185 13.5376C86.2416 18.5614 85.6359 24.4295 85.7382 30.5204L85.7434 30.586C85.9348 31.8 86.6061 32.5604 87.4372 32.5604C87.4713 32.5604 87.5028 32.5604 87.5369 32.5578C88.3261 32.5578 89.0131 31.8262 89.3277 31.1314C89.6712 30.4995 89.5768 30.1114 89.4379 29.8964C89.3382 29.747 89.0891 29.5005 88.5778 29.5503L88.5752 29.5451Z" fill="#1E233A"/>
</g>
<path id="Vector_11" d="M148.711 30.4391L148.562 30.3133L148.376 30.3369C147.959 30.3893 147.589 30.3893 147.199 30.3893C146.868 30.3893 146.624 30.3447 146.43 30.2503C144.773 28.5644 143.352 26.5559 141.978 24.613C141.446 23.8605 140.895 23.0817 140.337 22.3292C139.962 21.8205 139.589 21.2778 139.196 20.7009C138.575 19.7937 137.932 18.855 137.235 17.9976C136.047 16.4794 134.888 15.4726 133.616 14.8695C133.963 13.5034 134.413 12.1741 134.849 10.8814L135.161 9.95584C135.78 8.13353 136.364 6.13816 136.469 3.92255V3.87535L136.467 3.82815C136.385 3.09399 135.94 2.74001 135.525 2.64562C134.946 2.55647 134.327 2.93142 134.054 3.54498L134.033 3.59479C133.428 5.41973 132.89 7.32857 132.371 9.1771C131.875 10.9365 131.364 12.7588 130.79 14.5129C130.509 15.4018 130.237 16.288 129.964 17.1743C129.248 19.5026 128.509 21.9071 127.651 24.2407C126.343 27.9587 124.93 30.8193 123.202 33.2395L123.123 33.3496L123.102 33.4886C123.055 33.8032 123.131 34.089 123.312 34.2935C123.48 34.4823 123.718 34.5767 124.033 34.5767C124.148 34.5767 124.271 34.5636 124.408 34.5374C125.451 34.2804 126.102 33.3365 126.673 32.5001C126.823 32.2824 126.97 32.0674 127.119 31.876L127.156 31.8209C128.433 29.663 129.555 27.2429 130.588 24.4268C131.364 22.4 132.017 20.263 132.646 18.1969L132.861 17.4968L133.087 17.6934C135.161 19.9667 136.957 22.5888 138.693 25.1217C139.762 26.6844 140.869 28.2996 142.031 29.8177L142.859 30.9163C143.918 32.3899 145.132 33.2185 146.467 33.3811L146.522 33.3889L146.577 33.3811C146.698 33.3653 146.818 33.3522 146.936 33.3417C147.214 33.3155 147.5 33.2893 147.762 33.2028C148.344 33.0402 148.764 32.6836 149.044 32.1146L149.105 31.994V31.855C149.105 31.7973 149.118 31.7397 149.126 31.6872C149.141 31.585 149.155 31.4879 149.155 31.4119C149.155 31.0186 149 30.6699 148.719 30.4313L148.711 30.4391Z" fill="#1E233A"/>
</g>
<g id="Group_6">
<path id="Vector_12" d="M19.2093 41.7218L19.1936 47.0288C19.1936 48.4238 19.1516 49.4857 19.0651 50.2094C18.9786 50.933 18.8475 51.4312 18.6666 51.7039C18.4856 51.9766 18.2182 52.1103 17.8668 52.1103C17.5365 52.1103 17.1982 51.9583 16.8521 51.6541C16.506 51.3499 16.1153 50.8858 15.6853 50.2644C15.2553 49.643 14.6444 48.6991 13.8551 47.4431C12.5756 45.3979 11.7444 44.0974 11.3616 43.5415L11.3773 46.882L11.393 51.4706C11.393 51.6515 11.3196 51.8088 11.1702 51.9425C11.0207 52.0762 10.8293 52.1418 10.5933 52.1418C10.3574 52.1418 10.1791 52.0762 10.027 51.9425C9.87227 51.8088 9.79623 51.6515 9.79623 51.4706V46.8348L9.7805 44.6769C9.77001 44.2075 9.76477 43.5363 9.76477 42.6632C9.76477 42.0548 9.8277 41.6248 9.95618 41.3679C10.0847 41.1109 10.3285 40.9851 10.693 40.9851C11.0129 40.9851 11.3223 41.1135 11.6212 41.3679C11.9201 41.6248 12.2373 41.9945 12.573 42.4796C12.9086 42.9647 13.412 43.7461 14.0833 44.8211L14.626 45.6995C15.4572 47.0315 16.0734 47.999 16.4719 48.6021C16.8705 49.2051 17.214 49.6981 17.5024 50.0809C17.5653 48.9927 17.5994 47.9754 17.5994 47.0262V41.575C17.5994 41.3626 17.6676 41.1922 17.8065 41.0637C17.9455 40.9352 18.1474 40.8723 18.4148 40.8723C18.9471 40.8723 19.2146 41.1555 19.2146 41.7192L19.2093 41.7218Z" fill="#1E233A"/>
<path id="Vector_13" d="M27.4268 43.1509C27.2144 42.9333 27.1069 42.658 27.1069 42.3276C27.1069 41.9972 27.2171 41.7429 27.4347 41.5279C27.6523 41.3155 27.9329 41.208 28.2737 41.208C28.6146 41.208 28.8899 41.3103 29.0971 41.5122C29.3042 41.7141 29.4091 41.9815 29.4091 42.3119C29.4091 42.6423 29.299 42.9202 29.0813 43.1431C28.8637 43.3659 28.5831 43.4787 28.2423 43.4787C27.9014 43.4787 27.6392 43.3686 27.4268 43.1509ZM27.4268 52.0186C27.2774 51.9006 27.204 51.7355 27.204 51.5231L27.3639 45.0335C27.3639 44.8212 27.4373 44.6534 27.5868 44.5301C27.7362 44.4069 27.9276 44.3466 28.1636 44.3466C28.3996 44.3466 28.5936 44.4095 28.7483 44.538C28.903 44.6665 28.9791 44.8369 28.9791 45.0493L28.8191 51.5388C28.8086 51.7512 28.7326 51.9137 28.5884 52.0265C28.4442 52.1392 28.2554 52.1943 28.022 52.1943C27.7887 52.1943 27.5789 52.1366 27.4294 52.0186H27.4268Z" fill="#1E233A"/>
<path id="Vector_14" d="M44.1816 50.0021C44.2681 50.5659 44.3284 51.009 44.3651 51.3289C44.4018 51.6488 44.4202 51.9582 44.4202 52.2571C44.4202 53.0463 44.2576 53.7438 43.9325 54.3521C43.6074 54.9604 43.1485 55.435 42.5586 55.7759C41.9686 56.1167 41.2816 56.2871 40.5055 56.2871C39.9077 56.2871 39.3597 56.1692 38.8589 55.9358C38.3581 55.7024 37.9569 55.3825 37.6606 54.9761C37.3617 54.5723 37.2122 54.1345 37.2122 53.6651C37.2122 53.2587 37.4639 53.0568 37.9648 53.0568C38.2846 53.0568 38.4761 53.2115 38.5416 53.5209C38.6491 54.0112 38.8694 54.3757 39.205 54.6169C39.5406 54.8555 39.9654 54.9761 40.4767 54.9761C41.2449 54.9761 41.8322 54.7428 42.2439 54.2734C42.6529 53.8041 42.8601 53.1224 42.8601 52.2282C42.8601 51.9398 42.8339 51.6199 42.7788 51.2686C42.5323 51.5675 42.1993 51.8087 41.7798 51.9949C41.3577 52.181 40.8778 52.2754 40.3324 52.2754C39.5642 52.2754 38.8851 52.0971 38.2951 51.7405C37.7026 51.3839 37.2489 50.9015 36.9291 50.2932C36.6092 49.6849 36.4492 49.0241 36.4492 48.3109C36.4492 47.5977 36.6065 46.8924 36.9212 46.2658C37.2358 45.6365 37.6842 45.1383 38.2637 44.7712C38.8458 44.4041 39.5091 44.2206 40.2538 44.2206C41.085 44.2206 41.7405 44.4277 42.2203 44.8446C42.2623 44.7161 42.3593 44.4828 42.5087 44.1419C42.6162 43.9295 42.7919 43.822 43.0358 43.822C43.2377 43.822 43.4343 43.8771 43.6205 43.9898C43.8066 44.1026 43.9063 44.2442 43.9168 44.4146C43.9168 44.488 43.9115 44.5431 43.901 44.5745C43.7201 45.1514 43.6126 45.5132 43.5811 45.6627L44.1239 49.5643L44.1868 50.0126L44.1816 50.0021ZM41.7746 50.5449C42.2177 50.2879 42.4799 50.0126 42.5664 49.7137C42.5035 49.1054 42.3803 48.269 42.1993 47.2044C42.1888 47.0969 42.1469 46.8269 42.0709 46.389C41.9738 46.1871 41.7641 45.9957 41.4389 45.8148C41.1138 45.6338 40.7493 45.5421 40.3429 45.5421C39.8946 45.5421 39.496 45.6627 39.1447 45.9013C38.7933 46.1399 38.518 46.4729 38.3214 46.8924C38.1247 47.3146 38.0251 47.7787 38.0251 48.2926C38.0251 49.0294 38.2296 49.6508 38.6412 50.1621C39.0503 50.6734 39.6402 50.9303 40.4085 50.9303C40.8778 50.9303 41.3341 50.8019 41.7746 50.5475V50.5449Z" fill="#1E233A"/>
<path id="Vector_15" d="M58.5923 48.4292C58.65 49.318 58.6788 50.3983 58.6788 51.6674C58.6788 51.8378 58.6002 51.982 58.4481 52.1C58.296 52.218 58.1046 52.2757 57.8817 52.2757C57.6589 52.2757 57.4701 52.218 57.3232 52.1C57.1738 51.982 57.1004 51.8116 57.1004 51.5887C57.1004 48.9037 56.9929 47.1811 56.7805 46.4259C56.673 46.0431 56.513 45.7678 56.3006 45.6026C56.0883 45.4374 55.8156 45.3535 55.4852 45.3535C54.751 45.3535 54.1873 45.6498 53.7992 46.2398C53.4112 46.8323 53.2145 47.5324 53.2145 48.3426V51.6831C53.2145 51.8535 53.1411 51.9925 52.9916 52.1C52.8422 52.2075 52.656 52.2599 52.4331 52.2599C52.2103 52.2599 52.0058 52.2049 51.8563 52.0921C51.7068 51.9794 51.6334 51.8404 51.6334 51.6674C51.6334 49.5147 51.6596 47.4511 51.7147 45.4794C51.7567 43.956 51.8432 42.2726 51.9717 40.4267C52.0031 39.9679 52.2653 39.7397 52.7557 39.7397C52.989 39.7397 53.1726 39.7896 53.3063 39.8918C53.44 39.9941 53.5003 40.1383 53.4898 40.3323L53.3299 43.4027L53.2329 45.1621C53.4898 44.8317 53.8254 44.559 54.2397 44.3467C54.6566 44.1343 55.1574 44.0268 55.7421 44.0268C56.4449 44.0268 57.0007 44.2051 57.4045 44.5617C57.8083 44.9183 58.1072 45.4715 58.2986 46.2162C58.4376 46.8009 58.5372 47.5403 58.5949 48.4292H58.5923Z" fill="#1E233A"/>
<path id="Vector_16" d="M70.6247 49.651C70.7322 49.7585 70.7846 49.9394 70.7846 50.1937C70.7846 50.8021 70.588 51.3055 70.1921 51.704C69.7988 52.1026 69.2953 52.3045 68.6896 52.3045C67.848 52.3045 67.2397 51.9453 66.8673 51.2242C66.495 50.5058 66.3088 49.3783 66.3088 47.8418C66.3088 47.299 66.3246 46.7536 66.356 46.2109L65.5878 46.1637C65.1709 46.1427 64.9637 45.9251 64.9637 45.5082C64.9637 45.2958 65.0188 45.1385 65.1315 45.0362C65.2443 44.934 65.4278 44.8894 65.6822 44.8999L66.4662 44.9471C66.5291 44.2758 66.6523 43.3424 66.8333 42.1494C66.8962 41.7665 67.1584 41.5725 67.6172 41.5725C67.8821 41.5725 68.0892 41.6433 68.2334 41.7796C68.3776 41.9186 68.4379 42.0838 68.417 42.2752C68.2675 43.2034 68.139 44.1185 68.0341 45.0257C68.611 45.0467 68.9886 45.0572 69.1695 45.0572C69.3714 45.0572 69.5208 45.1018 69.6178 45.1935C69.7149 45.2853 69.7621 45.4243 69.7621 45.6183C69.7621 45.8517 69.7122 46.0142 69.61 46.106C69.5077 46.1978 69.3242 46.2476 69.0594 46.2581H67.924C67.8925 46.7694 67.8768 47.2964 67.8768 47.8418C67.8768 48.9194 67.945 49.7139 68.084 50.2331C68.2229 50.7522 68.4668 51.0092 68.8207 51.0092C69.2245 51.0092 69.4448 50.6946 69.4762 50.0653C69.4762 49.8739 69.5208 49.7296 69.6126 49.6326C69.7044 49.5356 69.8643 49.4884 70.1003 49.4884C70.3363 49.4884 70.5224 49.5409 70.6273 49.6484L70.6247 49.651Z" fill="#1E233A"/>
<path id="Vector_17" d="M98.5861 48.6125C98.607 49.913 98.6175 50.9094 98.6175 51.6016C98.6175 51.848 98.552 52.0394 98.4183 52.1758C98.2845 52.3148 98.0905 52.3829 97.8335 52.3829C97.5766 52.3829 97.3773 52.3174 97.2331 52.1837C97.0889 52.0499 97.0181 51.8716 97.0181 51.6488V47.1389C97.0181 45.6574 96.9656 44.564 96.8581 43.8613C96.7506 43.1586 96.6117 42.8073 96.4412 42.8073C96.2918 42.8073 96.0847 43.0459 95.8172 43.5257C95.5498 44.0056 95.3269 44.4749 95.146 44.9337C94.868 45.5945 94.598 46.5437 94.3305 47.7787C94.2335 48.1851 93.9372 48.387 93.4364 48.387C92.9356 48.387 92.6629 48.2008 92.558 47.8285C92.482 47.6056 92.3981 47.3014 92.3011 46.916C92.0782 46.0638 91.8789 45.4136 91.7085 44.9652C91.5276 44.4644 91.3047 43.9741 91.0373 43.4943C90.7698 43.0144 90.5731 42.7758 90.4447 42.7758C90.1353 42.7758 89.9491 44.1943 89.8862 47.0287C89.8757 47.54 89.8704 48.2821 89.8704 49.2522V51.6514C89.8704 51.8533 89.7996 52.0159 89.6554 52.1391C89.5112 52.2623 89.3067 52.3226 89.0393 52.3226C88.7718 52.3226 88.5647 52.2545 88.4467 52.1155C88.3287 51.9765 88.271 51.7641 88.271 51.4757C88.271 50.912 88.2815 50.128 88.3025 49.1264L88.3182 46.9999C88.3182 44.8787 88.4703 43.3343 88.7744 42.3642C89.0786 41.394 89.5715 40.9089 90.2533 40.9089C91.032 40.9089 91.6613 41.4019 92.1411 42.3878C92.6209 43.3736 93.0457 44.6139 93.4207 46.1058C93.751 44.7423 94.1968 43.5336 94.7553 42.4848C95.3138 41.436 95.9771 40.9089 96.7454 40.9089C97.2147 40.9089 97.5792 41.1475 97.8414 41.6195C98.1036 42.0941 98.2872 42.7758 98.392 43.6647C98.4995 44.5536 98.5572 45.6915 98.5677 47.0786L98.5834 48.6125H98.5861Z" fill="#1E233A"/>
<path id="Vector_18" d="M112.462 50.2748C112.462 50.5318 112.488 50.7415 112.54 50.9067C112.593 51.0719 112.658 51.2188 112.732 51.3472C112.805 51.4757 112.845 51.5544 112.845 51.5858C112.845 51.7563 112.774 51.9057 112.63 52.0342C112.485 52.1627 112.323 52.2256 112.142 52.2256C111.93 52.2256 111.72 52.0893 111.518 51.8192C111.316 51.5465 111.214 51.2791 111.214 51.0116V50.9146C111.001 51.363 110.687 51.7064 110.27 51.9451C109.853 52.1837 109.352 52.3043 108.767 52.3043C107.863 52.3043 107.171 51.987 106.696 51.3525C106.221 50.7179 105.985 49.8369 105.985 48.7069V44.821C105.985 44.6401 106.056 44.4959 106.2 44.3884C106.345 44.2835 106.528 44.2284 106.751 44.2284C106.974 44.2284 107.181 44.2809 107.336 44.3884C107.49 44.4959 107.566 44.6401 107.566 44.821V48.7226C107.566 50.267 108.031 51.0405 108.956 51.0405C109.606 51.0405 110.078 50.7442 110.372 50.1542C110.666 49.5643 110.813 48.7068 110.813 47.5872V44.821C110.813 44.6086 110.881 44.4408 111.02 44.3176C111.159 44.1943 111.345 44.134 111.578 44.134C111.812 44.134 112.021 44.197 112.171 44.3254C112.32 44.4539 112.394 44.6191 112.394 44.821L112.457 50.2722L112.462 50.2748Z" fill="#1E233A"/>
<path id="Vector_19" d="M121.015 51.8588C120.483 51.5074 120.081 51.0486 119.817 50.4848C119.743 50.3354 119.704 50.2174 119.704 50.1335C119.714 49.963 119.801 49.8083 119.969 49.6694C120.134 49.5304 120.312 49.4622 120.504 49.4622C120.622 49.4622 120.713 49.4885 120.784 49.5409C120.852 49.5933 120.915 49.6589 120.968 49.7323C121.02 49.8057 121.059 49.8555 121.08 49.8765C121.369 50.2698 121.642 50.5714 121.904 50.7785C122.166 50.9856 122.509 51.0905 122.934 51.0905C123.328 51.0905 123.658 50.9935 123.925 50.8021C124.19 50.6107 124.324 50.3695 124.324 50.0837C124.324 49.7743 124.185 49.5383 123.907 49.3731C123.629 49.2079 123.194 49.0191 122.596 48.8067C122.043 48.6258 121.589 48.4475 121.238 48.2718C120.886 48.0962 120.585 47.8497 120.336 47.535C120.084 47.2204 119.961 46.8192 119.961 46.3289C119.961 45.8805 120.087 45.4741 120.336 45.107C120.585 44.74 120.936 44.4515 121.382 44.2444C121.828 44.0373 122.336 43.9324 122.9 43.9324C123.464 43.9324 123.98 44.0425 124.418 44.2601C124.856 44.4778 125.192 44.7688 125.425 45.1306C125.658 45.4925 125.776 45.8884 125.776 46.3132C125.776 46.5597 125.721 46.7379 125.609 46.8481C125.496 46.9582 125.312 47.0159 125.058 47.0159C124.804 47.0159 124.631 46.9713 124.547 46.8795C124.46 46.7878 124.413 46.6698 124.403 46.5203C124.361 46.1034 124.214 45.7888 123.962 45.5685C123.71 45.3509 123.356 45.2408 122.9 45.2408C122.444 45.2408 122.072 45.3509 121.854 45.5685C121.636 45.7862 121.526 46.03 121.526 46.2948C121.526 46.6147 121.668 46.8612 121.951 47.0316C122.234 47.202 122.682 47.3935 123.301 47.6085C123.855 47.7999 124.306 47.9808 124.652 48.1512C124.998 48.3216 125.294 48.5576 125.538 48.8618C125.782 49.1659 125.905 49.5566 125.905 50.0365C125.905 50.5478 125.763 50.9804 125.48 51.3317C125.197 51.6831 124.827 51.9479 124.368 52.1236C123.91 52.2993 123.425 52.3884 122.913 52.3884C122.176 52.3884 121.545 52.2127 121.01 51.8614L121.015 51.8588Z" fill="#1E233A"/>
<path id="Vector_20" d="M134.726 51.8246C134.081 51.4523 133.595 50.9515 133.27 50.3222C132.945 49.6929 132.783 49.0007 132.783 48.2429C132.783 47.4852 132.958 46.7589 133.31 46.1243C133.661 45.4898 134.157 44.989 134.796 44.6219C135.436 44.2548 136.165 44.0713 136.986 44.0713C137.709 44.0713 138.362 44.2181 138.944 44.5118C139.526 44.8055 139.98 45.2171 140.31 45.752C140.641 46.2843 140.806 46.8926 140.806 47.5743C140.806 47.9362 140.754 48.1957 140.646 48.3504C140.539 48.5051 140.321 48.5891 139.991 48.5995L134.219 48.6782C134.219 49.0295 134.332 49.3914 134.555 49.7663C134.778 50.1387 135.1 50.4507 135.523 50.7024C135.945 50.9541 136.438 51.0774 137.001 51.0774C137.405 51.0774 137.751 51.0223 138.032 50.9095C138.315 50.7968 138.541 50.6657 138.711 50.511C138.881 50.3563 139.083 50.1518 139.319 49.8948C139.437 49.7768 139.584 49.7191 139.768 49.7191C139.938 49.7191 140.101 49.7847 140.255 49.9184C140.41 50.0521 140.486 50.2042 140.486 50.3747C140.486 50.5136 140.439 50.6473 140.342 50.7732C140.043 51.2006 139.644 51.5755 139.144 51.9007C138.643 52.2258 137.945 52.3884 137.049 52.3884C136.152 52.3884 135.368 52.2022 134.723 51.8299L134.726 51.8246ZM139.306 47.4616C139.369 47.4616 139.416 47.4432 139.443 47.4065C139.469 47.3698 139.482 47.3121 139.482 47.2387C139.482 46.675 139.243 46.2135 138.771 45.8569C138.299 45.5003 137.702 45.322 136.988 45.322C136.446 45.322 135.963 45.4505 135.541 45.7048C135.119 45.9618 134.794 46.2659 134.566 46.6252C134.337 46.9817 134.222 47.2938 134.222 47.5612L139.306 47.4642V47.4616Z" fill="#1E233A"/>
</g>
</g>
</svg>
